<svg width="222" height="161" viewBox="0 0 222 161" fill="none" xmlns="http://www.w3.org/2000/svg">
<path d="M169.838 160.128C167.623 160.124 165.417 159.833 163.277 159.261C161.024 158.746 159.23 157.047 158.593 154.825C157.957 152.603 158.579 150.211 160.217 148.581C161.855 146.951 164.25 146.34 166.469 146.988C169.602 147.909 172.981 147.443 175.748 145.707C189.223 137.63 197.3 103.903 200.334 91.1959C207.249 62.2952 213.711 25.7702 205.121 15.979C203.782 14.4424 201.536 12.9451 195.271 13.5756C192.964 13.9152 190.656 12.9615 189.262 11.0921C187.868 9.22278 187.612 6.73918 188.595 4.62463C189.579 2.51008 191.643 1.10558 193.971 0.967185C203.132 0.0215563 209.889 2.20832 214.656 7.62599C221.493 15.5062 227.442 32.3305 212.686 94.151C206.579 119.762 198.187 147.027 182.308 156.582C178.56 158.896 174.242 160.123 169.838 160.128Z" fill="url(#paint0_linear_5189_1922)"/>
<path d="M116.625 141.018C113.121 141.018 110.281 138.178 110.281 134.675C110.281 102.11 58.1732 55.4588 27.9131 46.8496C25.3914 46.1207 16.9793 44.0521 14.7728 47.5982C12.8675 50.4252 9.0685 51.2408 6.17075 49.4449C3.273 47.649 2.31281 43.884 3.99659 40.9197C10.4387 30.5178 23.9336 32.5273 31.3804 34.6549C48.3623 39.4816 71.215 54.4934 89.5957 72.9135C102.066 85.384 122.949 109.99 122.949 134.675C122.949 138.171 120.121 141.008 116.625 141.018Z" fill="url(#paint1_linear_5189_1922)"/>
<path d="M164.871 159.479C164.354 159.47 163.838 159.404 163.335 159.282C147.358 155.342 140.561 127.071 131.952 91.3147C123.481 56.2477 112.98 12.7093 94.5207 12.7093H93.8508C90.3528 12.9106 87.3539 10.2381 87.1526 6.74007C86.9513 3.24204 89.6239 0.24315 93.1219 0.0418633C113.63 -1.12047 123.776 22.2444 127.105 29.908C134.237 46.3974 139.379 67.7134 144.343 88.3399C148.126 103.963 151.672 118.718 155.77 129.888C160.99 144.191 165.009 146.595 166.487 146.949C169.62 147.705 171.688 150.69 171.295 153.889C170.902 157.088 168.173 159.484 164.95 159.459L164.871 159.479Z" fill="url(#paint2_linear_5189_1922)"/>
<path d="M96.7077 160.7C95.7621 160.7 94.7377 160.7 93.7723 160.7C79.3909 159.813 70.0331 148.722 70.5256 133.119C70.596 130.853 71.8701 128.796 73.868 127.724C75.8659 126.652 78.2841 126.727 80.2116 127.921C82.1392 129.115 83.2832 131.247 83.2128 133.513C83.0749 137.67 83.922 147.303 94.5604 148.052C98.5005 148.288 103.918 148.052 106.991 145.097C109.178 143.127 110.281 139.561 110.281 134.774C110.281 131.27 113.122 128.43 116.625 128.43C120.129 128.43 122.969 131.27 122.969 134.774C122.969 143.206 120.506 149.786 115.679 154.337C110.853 158.887 104.746 160.7 96.7077 160.7Z" fill="#2A71FF"/>
<path d="M76.8698 139.561H76.4561C74.7775 139.455 73.2105 138.684 72.1014 137.42C70.9923 136.155 70.4325 134.501 70.5459 132.823C71.1369 123.406 76.4561 110.936 86.6216 95.727C96.7153 80.8414 108.051 66.8368 120.507 53.8632C143.615 29.4345 175.077 2.6417 194.069 0.986849C197.482 0.796115 200.432 3.3443 200.74 6.7489C201.048 10.1535 198.603 13.1899 195.211 13.6149C182.859 14.7379 155.928 34.8719 129.707 62.5906C102.796 91.0383 84.0999 119.584 83.1937 133.651C82.9659 136.976 80.2032 139.558 76.8698 139.561Z" fill="url(#paint3_linear_5189_1922)"/>
<path d="M36.1289 152.484C32.6254 152.484 29.7853 149.644 29.7853 146.141C29.7853 142.637 32.6254 139.797 36.1289 139.797C37.961 139.797 40.9555 136.33 44.0091 126.598C47.1809 116.255 49.4662 101.913 51.8894 86.7239C54.9429 67.634 58.095 47.9137 63.5127 32.035C70.3488 11.9798 79.9233 1.53849 92.7287 0.0806441C96.2104 -0.316488 99.3548 2.18405 99.752 5.66576C100.149 9.14747 97.6486 12.2919 94.1668 12.689C76.259 14.6591 69.679 55.7545 64.3992 88.7136C61.8973 104.356 59.5332 119.131 56.1053 130.321C54.3913 135.798 49.2692 152.484 36.1289 152.484Z" fill="url(#paint4_linear_5189_1922)"/>
<path d="M36.1482 152.485H35.7739C17.5705 151.421 10.0252 123.841 5.94719 103.234C-2.48467 60.4441 -0.928324 47.5008 4.29234 40.4677C6.41858 37.7607 10.3157 37.2434 13.0746 39.3018C15.8334 41.3603 16.4473 45.2434 14.4578 48.0524C13.8274 48.9193 11.7983 52.8988 13.0985 67.4575C14.3069 78.6241 16.0756 89.723 18.398 100.712C25.4508 136.429 34.0402 139.66 36.5028 139.818C39.8776 140.075 42.4558 142.937 42.3611 146.32C42.2663 149.704 39.5322 152.417 36.1482 152.485Z" fill="url(#paint5_linear_5189_1922)"/>
<defs>
<linearGradient id="paint0_linear_5189_1922" x1="165.644" y1="156.991" x2="263.34" y2="43.0989" gradientUnits="userSpaceOnUse"><stop offset="0.0875037" stop-color="#30AD1E"/><stop offset="0.530756" stop-color="#A4D432"/><stop offset="0.900758" stop-color="#FBDD1C"/></linearGradient>
<linearGradient id="paint1_linear_5189_1922" x1="9.27148" y1="37.7025" x2="133.505" y2="135.359" gradientUnits="userSpaceOnUse"><stop offset="0.045" stop-color="#FF2E1D"/><stop offset="0.445239" stop-color="#9C53A6"/><stop offset="0.692308" stop-color="#7176E6"/><stop offset="0.907553" stop-color="#2A71FF"/></linearGradient>
<linearGradient id="paint2_linear_5189_1922" x1="86.5311" y1="7.00674e-06" x2="211.99" y2="85.2965" gradientUnits="userSpaceOnUse"><stop offset="0.145" stop-color="#2A71FF"/><stop offset="0.671556" stop-color="#24A7BC"/><stop offset="0.905" stop-color="#30AD1F"/></linearGradient>
<linearGradient id="paint3_linear_5189_1922" x1="200.949" y1="-8.86544" x2="71.0901" y2="103.403" gradientUnits="userSpaceOnUse"><stop offset="0.129733" stop-color="#FBDD1D"/><stop offset="0.504043" stop-color="#4BBBB0"/><stop offset="0.8954" stop-color="#2A71FF"/></linearGradient>
<linearGradient id="paint4_linear_5189_1922" x1="87.7668" y1="-5.56304" x2="-14.4445" y2="59.6814" gradientUnits="userSpaceOnUse"><stop offset="0.195" stop-color="#2B72FF"/><stop offset="0.543269" stop-color="#8F56C1"/><stop offset="0.965" stop-color="#D52B1E"/></linearGradient>
<linearGradient id="paint5_linear_5189_1922" x1="2.20182e-05" y1="29.668" x2="17.3061" y2="170.59" gradientUnits="userSpaceOnUse"><stop offset="0.13" stop-color="#FF2E1D"/><stop offset="0.803435" stop-color="#D52B1E"/></linearGradient>
</defs>
</svg>
