<svg width="24" height="24" viewBox="0 0 24 24" fill="none" xmlns="http://www.w3.org/2000/svg">
<path d="M12.9996 11H14.9996C15.2649 11 15.5192 11.1054 15.7067 11.2929C15.8943 11.4804 15.9996 11.7348 15.9996 12C15.9996 12.2652 15.8943 12.5196 15.7067 12.7071C15.5192 12.8946 15.2649 13 14.9996 13H12.9996V15C12.9996 15.2652 12.8943 15.5196 12.7067 15.7071C12.5192 15.8946 12.2649 16 11.9996 16C11.7344 16 11.4801 15.8946 11.2925 15.7071C11.105 15.5196 10.9996 15.2652 10.9996 15V13H8.99963C8.73442 13 8.48006 12.8946 8.29253 12.7071C8.10499 12.5196 7.99963 12.2652 7.99963 12C7.99963 11.7348 8.10499 11.4804 8.29253 11.2929C8.48006 11.1054 8.73442 11 8.99963 11H10.9996V9C10.9996 8.73478 11.105 8.48043 11.2925 8.29289C11.4801 8.10536 11.7344 8 11.9996 8C12.2649 8 12.5192 8.10536 12.7067 8.29289C12.8943 8.48043 12.9996 8.73478 12.9996 9V11Z" fill="#205EA3"/>
<path fill-rule="evenodd" clip-rule="evenodd" d="M11.9997 2H12.0147C14.6669 2.00199 17.2096 3.05747 19.0836 4.93424C20.9575 6.81101 22.0092 9.35534 22.0072 12.0075C22.0052 14.6597 20.9497 17.2024 19.073 19.0764C17.1962 20.9503 14.6519 22.002 11.9997 22H11.9847C9.33252 21.998 6.78978 20.9425 4.91582 19.0658C3.04186 17.189 1.9902 14.6447 1.99219 11.9925C1.99418 9.34034 3.04966 6.79759 4.92643 4.92363C5.85571 3.99574 6.95865 3.25997 8.17229 2.75834C9.38592 2.2567 10.6865 1.99902 11.9997 2ZM11.9877 20H11.9997C14.1214 20.0016 16.1569 19.1603 17.6583 17.6611C19.1597 16.1619 20.0041 14.1277 20.0057 12.006C20.0073 9.88427 19.166 7.84881 17.6668 6.34739C16.1676 4.84597 14.1334 4.00159 12.0117 4H11.9997C9.87796 3.99841 7.8425 4.83974 6.34108 6.33891C4.83966 7.83807 3.99528 9.87227 3.99369 11.994C3.9921 14.1157 4.83343 16.1512 6.33259 17.6526C7.83176 19.154 9.86596 19.9984 11.9877 20Z" fill="#205EA3"/>
</svg>
