<svg width="24" height="24" viewBox="0 0 24 24" fill="none" xmlns="http://www.w3.org/2000/svg">
<path fill-rule="evenodd" clip-rule="evenodd" d="M11.1007 9.7557C10.8099 9.75558 10.5158 9.69351 10.2363 9.56949L4.60959 7.05244L5.40319 5.26224L11.0299 7.7793C11.0869 7.80543 11.1422 7.7989 11.1926 7.76296C11.243 7.72539 11.2657 7.67639 11.2592 7.61432L10.6136 1.45808L12.5537 1.25391L13.1977 7.40688C13.2774 8.16968 12.9554 8.8949 12.3374 9.34735C11.9669 9.61832 11.5362 9.75553 11.1007 9.7557ZM15.0524 11.8203C15.4209 12.0929 15.8507 12.2354 16.2865 12.239L16.2865 12.2358C16.5776 12.2382 16.8725 12.1803 17.1532 12.0568L22.801 9.58727L22.0225 7.79045L16.3747 10.26C16.3176 10.2857 16.2624 10.2787 16.2122 10.2423C16.1621 10.206 16.1398 10.1551 16.1468 10.0931L16.8426 3.9458L14.9043 3.72529L14.2085 9.87263C14.1224 10.6364 14.4383 11.3643 15.0524 11.8203ZM18.0551 21.795L13.975 17.1608C13.4694 16.5862 13.3104 15.8073 13.5543 15.0793C13.7966 14.3513 14.3883 13.8257 15.1377 13.6722L21.1741 12.4384L21.562 14.3595L15.5257 15.5933C15.4638 15.6058 15.4245 15.6414 15.4044 15.7017C15.3844 15.7619 15.3953 15.8143 15.4371 15.862L19.5172 20.4963L18.0551 21.795ZM6.64949 22.1226L4.96354 21.1362L8.06376 15.7903C8.44842 15.1269 9.13455 14.7326 9.89887 14.7355C10.6632 14.7384 11.3463 15.1378 11.726 15.8041L14.7859 21.1731L13.0926 22.1468L10.0327 16.7777C9.97128 16.6697 9.81354 16.6675 9.75134 16.7767L6.65112 22.1226L6.64949 22.1226ZM3.12507 16.4965L4.56162 17.8235L4.56158 17.8267L8.73119 13.2729C9.24788 12.7067 9.42038 11.9326 9.19237 11.2C8.96436 10.4674 8.38297 9.93035 7.63666 9.76232L1.62553 8.41111L1.2002 10.3243L7.21136 11.6722C7.27139 11.6859 7.31164 11.7239 7.33053 11.7829C7.3494 11.8436 7.33744 11.8974 7.29467 11.9426L3.12507 16.4965Z" fill="#236CFF"/>
</svg>
