<svg width="24" height="24" viewBox="0 0 24 24" fill="none" xmlns="http://www.w3.org/2000/svg">
<path d="M12 24C18.6274 24 24 18.6274 24 12C24 5.37258 18.6274 0 12 0C5.37258 0 0 5.37258 0 12C0 18.6274 5.37258 24 12 24Z" fill="#236CFF"/>
<g clip-path="url(#clip0_29474_19748)">
<path d="M12.1905 12.2364C12.1905 13.0212 12.8187 13.5948 13.6167 13.5948C14.4146 13.5948 15.0433 13.0221 15.0433 12.2364V10.4351H14.2703V12.144C14.2703 12.5672 13.9874 12.8512 13.6145 12.8512C13.2416 12.8512 12.9587 12.5672 12.9587 12.144V10.4351H12.1865L12.1905 12.2364Z" fill="white"/>
<path d="M17.1094 11.1581H18.0315V13.5321H18.804V11.1581H19.7257V10.4351H17.1094V11.1581Z" fill="white"/>
<path d="M16.6095 10.4351H15.8369V13.5321H16.6095V10.4351Z" fill="white"/>
<path d="M9.06934 11.1581H9.99139V13.5321H10.764V11.1581H11.6856V10.4351H9.06934V11.1581Z" fill="white"/>
<path d="M5.0167 10.4351H4.24414V13.5321H5.0167V11.9836V10.4351Z" fill="white"/>
<path d="M8.66284 11.7304C8.66284 10.9457 8.03413 10.3721 7.23621 10.3721C6.43829 10.3721 5.80957 10.9448 5.80957 11.7304V13.5318H6.58213V11.8229C6.58213 11.3996 6.86545 11.1157 7.23796 11.1157C7.61047 11.1157 7.89378 11.3996 7.89378 11.8229V13.5318H8.66636L8.66284 11.7304Z" fill="white"/>
</g>
<defs>
<clipPath id="clip0_29474_19748">
<rect width="15.5556" height="3.33333" fill="white" transform="translate(4.22266 10.3335)"/>
</clipPath>
</defs>
</svg>
