<svg width="24" height="24" viewBox="0 0 24 24" fill="none" xmlns="http://www.w3.org/2000/svg">
<path d="M12.0152 2H12.0002C9.34803 1.99788 6.80364 3.04942 4.92678 4.92328C3.04992 6.79714 1.99431 9.33984 1.99219 11.992C1.99007 14.6442 3.0416 17.1886 4.91547 19.0654C6.78933 20.9423 9.33203 21.9979 11.9842 22H12.0002C14.6524 22.0019 17.1966 20.9501 19.0733 19.076C20.95 17.202 22.0053 14.6592 22.0072 12.007C22.009 9.35484 20.9573 6.81056 19.0832 4.93388C17.2092 3.05721 14.6664 2.00186 12.0142 2H12.0152ZM15.8892 10.586L11.6462 14.828C11.4587 15.0155 11.2044 15.1208 10.9392 15.1208C10.674 15.1208 10.4197 15.0155 10.2322 14.828L8.11119 12.707C7.92903 12.5184 7.82824 12.2658 7.83052 12.0036C7.8328 11.7414 7.93796 11.4906 8.12337 11.3052C8.30878 11.1198 8.55959 11.0146 8.82179 11.0123C9.08399 11.0101 9.33659 11.1108 9.52519 11.293L10.9392 12.707L14.4752 9.172C14.6638 8.98985 14.9164 8.88905 15.1786 8.89133C15.4408 8.89361 15.6916 8.99878 15.877 9.18418C16.0624 9.36959 16.1676 9.62041 16.1699 9.8826C16.1721 10.1448 16.0713 10.3974 15.8892 10.586V10.586Z" fill="#00856D"/>
</svg>
