<svg width="24" height="24" viewBox="0 0 24 24" fill="none" xmlns="http://www.w3.org/2000/svg">
<path fill-rule="evenodd" clip-rule="evenodd" d="M11.0003 2C11.0003 1.73478 11.1056 1.48043 11.2932 1.29289C11.4807 1.10536 11.7351 1 12.0003 1H14.0003C14.2655 1 14.5198 1.10536 14.7074 1.29289C14.8949 1.48043 15.0003 1.73478 15.0003 2C15.0003 2.26522 14.8949 2.51957 14.7074 2.70711C14.5198 2.89464 14.2655 3 14.0003 3H13.0003V4C14.3062 4.13688 15.5641 4.5679 16.6795 5.2607C17.7949 5.9535 18.7388 6.89005 19.4403 8H20.5003C20.6984 7.99591 20.8953 8.03192 21.0791 8.10586C21.2629 8.17979 21.4299 8.29013 21.57 8.43024C21.7101 8.57035 21.8205 8.73734 21.8944 8.92118C21.9683 9.10501 22.0044 9.3019 22.0003 9.5V11.5C22.0044 11.6981 21.9683 11.895 21.8944 12.0788C21.8205 12.2627 21.7101 12.4296 21.57 12.5698C21.4299 12.7099 21.2629 12.8202 21.0791 12.8941C20.8953 12.9681 20.6984 13.0041 20.5003 13H20.0003V17C20.5307 17 21.0394 17.2107 21.4145 17.5858C21.7896 17.9609 22.0003 18.4696 22.0003 19V20C22.0003 20.5304 21.7896 21.0391 21.4145 21.4142C21.0394 21.7893 20.5307 22 20.0003 22H4.00031C3.46988 22 2.96117 21.7893 2.58609 21.4142C2.21102 21.0391 2.00031 20.5304 2.00031 20V19C2.00031 18.4696 2.21102 17.9609 2.58609 17.5858C2.96117 17.2107 3.46988 17 4.00031 17V13H3.50031C3.3022 13.0041 3.10532 12.9681 2.92148 12.8941C2.73765 12.8202 2.57066 12.7099 2.43055 12.5698C2.29044 12.4296 2.1801 12.2627 2.10616 12.0788C2.03223 11.895 1.99622 11.6981 2.00031 11.5V9.5C1.99622 9.3019 2.03223 9.10501 2.10616 8.92118C2.1801 8.73734 2.29044 8.57035 2.43055 8.43024C2.57066 8.29013 2.73765 8.17979 2.92148 8.10586C3.10532 8.03192 3.3022 7.99591 3.50031 8H4.65031C5.33004 6.89435 6.25757 5.96192 7.35964 5.27639C8.4617 4.59085 9.70808 4.171 11.0003 4.05V2ZM6.00031 13V17H7.00031V13H6.00031ZM9.00031 13V17H15.0003V13H9.00031ZM17.0003 13V17H18.0003V13H17.0003ZM4.00031 19V20H20.0003V19H4.00031ZM4.90031 10C5.18452 10.0025 5.46388 9.92624 5.70744 9.77975C5.95101 9.63326 6.14928 9.42222 6.28031 9.17C6.86623 8.18116 7.70499 7.36626 8.71031 6.80911C9.71564 6.25196 10.8512 5.97268 12.0003 6C13.1622 5.98337 14.3087 6.26744 15.3285 6.82463C16.3482 7.38181 17.2066 8.1932 17.8203 9.18C17.9251 9.38188 18.0677 9.56179 18.2403 9.71C18.4857 9.90157 18.789 10.0039 19.1003 10H20.0003V11H4.00031V10H4.90031Z" fill="#21262A"/>
<path d="M12.0002 10C12.198 10 12.3913 9.94135 12.5558 9.83147C12.7202 9.72159 12.8484 9.56541 12.9241 9.38268C12.9998 9.19996 13.0196 8.99889 12.981 8.80491C12.9424 8.61093 12.8472 8.43275 12.7073 8.29289C12.5675 8.15304 12.3893 8.0578 12.1953 8.01922C12.0013 7.98063 11.8002 8.00043 11.6175 8.07612C11.4348 8.15181 11.2786 8.27998 11.1687 8.44443C11.0588 8.60888 11.0002 8.80222 11.0002 9C11.0002 9.26522 11.1056 9.51957 11.2931 9.70711C11.4806 9.89464 11.735 10 12.0002 10Z" fill="#21262A"/>
</svg>
