<svg width="24" height="24" viewBox="0 0 24 24" fill="none" xmlns="http://www.w3.org/2000/svg">
<path d="M14.3499 2.00009C14.9019 2.00009 15.3499 2.44819 15.3499 3.00019C15.3499 3.55219 14.9019 4.00019 14.3499 4.00019H6.48992C5.09092 3.98319 3.94092 5.10119 3.91992 6.50019V13.5002C3.94092 14.8992 5.08992 16.0182 6.48992 16.0002H7.91992C8.47192 16.0002 8.91992 16.4472 8.91992 17.0002V18.7392L11.6469 16.2602C11.8309 16.0932 12.0709 16.0002 12.3199 16.0002H17.3499C18.7489 16.0182 19.8989 14.8992 19.9199 13.5002V9.50019C19.9199 8.94819 20.3679 8.50019 20.9199 8.50019C21.4729 8.50019 21.9199 8.94819 21.9199 9.50019V13.5002C21.8979 16.0032 19.8539 18.0162 17.3499 18.0002H12.7069L8.59292 21.7402C8.40892 21.9072 8.16892 22.0002 7.91992 22.0002C7.36792 22.0002 6.91992 21.5532 6.91992 21.0002V18.0002H6.48992C3.98692 18.0162 1.94192 16.0032 1.91992 13.5002V6.50019C1.94192 3.99719 3.98692 1.98419 6.48992 2.00009H14.3499V2.00009ZM20.7642 2.59999L21.4892 3.32599C22.2792 4.11699 22.2792 5.39999 21.4892 6.19099L15.6772 11.985C15.5492 12.113 15.3872 12.204 15.2122 12.248L12.3112 12.969C12.2312 12.989 12.1482 13 12.0652 13C11.5122 13 11.0652 12.552 11.0662 11.999C11.0662 11.917 11.0762 11.836 11.0962 11.756L11.8252 8.85599C11.8692 8.68099 11.9602 8.52099 12.0892 8.39299L17.9002 2.59999C18.6912 1.80999 19.9732 1.80999 20.7642 2.59999V2.59999ZM19.3522 4.01299L18.5892 4.73699L13.7002 9.61199L13.4452 10.627L14.4612 10.375L20.0772 4.77499V4.73999L19.3522 4.01299V4.01299Z" fill="#21262A"/>
</svg>
