<svg width="20" height="20" viewBox="0 0 20 20" fill="none" xmlns="http://www.w3.org/2000/svg">
<path d="M10.0002 12.4998C9.83534 12.4998 9.67422 12.5487 9.53718 12.6403C9.40014 12.7319 9.29333 12.862 9.23026 13.0143C9.16719 13.1665 9.15068 13.3341 9.18284 13.4958C9.21499 13.6574 9.29436 13.8059 9.4109 13.9224C9.52745 14.039 9.67593 14.1183 9.83758 14.1505C9.99923 14.1827 10.1668 14.1662 10.3191 14.1031C10.4713 14.04 10.6015 13.9332 10.6931 13.7962C10.7846 13.6591 10.8335 13.498 10.8335 13.3332C10.8335 13.1122 10.7457 12.9002 10.5894 12.7439C10.4331 12.5876 10.2212 12.4998 10.0002 12.4998Z" fill="#5D686F"/>
<path d="M12.5002 8.33318C12.4988 7.67054 12.235 7.03542 11.7665 6.56687C11.2979 6.09831 10.6628 5.8345 10.0002 5.83318C9.44438 5.835 8.90505 6.02197 8.4674 6.36454C8.02975 6.70712 7.71873 7.18576 7.58349 7.72484C7.5525 7.83211 7.54337 7.9445 7.55666 8.05536C7.56994 8.16622 7.60537 8.27328 7.66084 8.37018C7.7163 8.46708 7.79068 8.55184 7.87954 8.61944C7.9684 8.68704 8.06994 8.73609 8.17813 8.76368C8.28632 8.79128 8.39895 8.79684 8.50933 8.78006C8.61972 8.76328 8.7256 8.72448 8.8207 8.66598C8.9158 8.60748 8.99817 8.53047 9.06293 8.43951C9.12768 8.34856 9.1735 8.24552 9.19766 8.13651C9.244 7.95756 9.34741 7.7986 9.49223 7.68371C9.63704 7.56882 9.81536 7.50427 10.0002 7.49984C10.2208 7.50116 10.432 7.58937 10.588 7.74537C10.744 7.90137 10.8322 8.11257 10.8335 8.33318C10.8335 8.34401 10.8393 8.35318 10.8393 8.36401C10.8393 8.37484 10.8335 8.38318 10.8335 8.39401C10.8335 8.47133 10.812 8.54712 10.7714 8.6129C10.7307 8.67869 10.6726 8.73187 10.6035 8.76651L9.62683 9.25318C9.48833 9.32258 9.37192 9.42921 9.29066 9.5611C9.2094 9.693 9.16652 9.84493 9.16683 9.99984V10.8332C9.16683 11.0542 9.25462 11.2662 9.4109 11.4224C9.56718 11.5787 9.77915 11.6665 10.0002 11.6665C10.2212 11.6665 10.4331 11.5787 10.5894 11.4224C10.7457 11.2662 10.8335 11.0542 10.8335 10.8332V10.514L11.3493 10.2573C11.7025 10.0791 11.998 9.80445 12.2016 9.46527C12.4053 9.12609 12.5088 8.7362 12.5002 8.34068V8.33318Z" fill="#5D686F"/>
<path d="M15.9018 4.11651C15.1311 3.33901 14.2139 2.72212 13.2031 2.30157C12.1924 1.88102 11.1082 1.66517 10.0135 1.66651H10.0002C7.79002 1.66474 5.6697 2.54102 4.10565 4.10257C2.5416 5.66413 1.66193 7.78304 1.66016 9.99318C1.65839 12.2033 2.53467 14.3236 4.09622 15.8877C5.65777 17.4517 7.77669 18.3314 9.98683 18.3332H10.0002C11.6472 18.3332 13.2573 17.8451 14.6272 16.9305C15.997 16.016 17.0651 14.716 17.6966 13.1948C18.3281 11.6737 18.4946 9.99944 18.1752 8.38366C17.8557 6.76787 17.0647 5.28298 15.9018 4.11651ZM14.7068 14.7207C14.0896 15.3397 13.3559 15.8303 12.5481 16.1643C11.7403 16.4982 10.8743 16.6689 10.0002 16.6665H9.98933C8.22122 16.6651 6.52609 15.9613 5.27687 14.7101C4.02764 13.4588 3.32664 11.7625 3.32808 9.99443C3.32951 8.22632 4.03327 6.5312 5.28453 5.28197C6.53579 4.03274 8.23205 3.33174 10.0002 3.33318H10.0102C11.3286 3.33527 12.6169 3.72826 13.712 4.46245C14.8071 5.19665 15.6599 6.23908 16.1626 7.45794C16.6653 8.6768 16.7954 10.0174 16.5362 11.3101C16.2771 12.6028 15.6405 13.7897 14.7068 14.7207Z" fill="#5D686F"/>
</svg>
