<svg width="20" height="20" viewBox="0 0 20 20" fill="none" xmlns="http://www.w3.org/2000/svg">
<path d="M10.0122 1.66797H9.99974C8.90539 1.66715 7.8216 1.88189 6.81024 2.29992C5.79888 2.71795 4.87976 3.33109 4.10535 4.10433C2.54138 5.66596 1.66182 7.78492 1.66016 9.99506C1.6585 12.2052 2.53489 14.3255 4.09652 15.8894C5.65815 17.4534 7.7771 18.333 9.98724 18.3346H9.99974C12.2099 18.3362 14.3301 17.4597 15.894 15.898C17.4579 14.3363 18.3374 12.2173 18.3389 10.0071C18.3405 7.797 17.464 5.67677 15.9023 4.11287C14.3405 2.54898 12.2215 1.66952 10.0114 1.66797H10.0122ZM13.0831 10.6013L9.68307 13.9288C9.52505 14.0835 9.31204 14.1691 9.0909 14.1668C8.86977 14.1644 8.65862 14.0743 8.50391 13.9163C8.3492 13.7583 8.2636 13.5453 8.26595 13.3241C8.26829 13.103 8.35838 12.8918 8.51641 12.7371L10.4597 10.8346H7.49974C7.33424 10.8346 7.17249 10.7853 7.03512 10.693C6.89774 10.6007 6.79096 10.4696 6.72839 10.3164C6.66581 10.1632 6.65028 9.99478 6.68376 9.8327C6.71725 9.67062 6.79824 9.52218 6.91641 9.4063L10.3164 6.07797C10.4744 5.92326 10.6874 5.83766 10.9086 5.84001C11.1297 5.84235 11.3409 5.93245 11.4956 6.09047C11.6503 6.2485 11.7359 6.46151 11.7335 6.68264C11.7312 6.90378 11.6411 7.11493 11.4831 7.26964L9.53974 9.16797L12.4997 9.17214C12.6654 9.17199 12.8274 9.22124 12.9649 9.31358C13.1025 9.40592 13.2094 9.53717 13.272 9.69056C13.3346 9.84395 13.3501 10.0125 13.3164 10.1747C13.2828 10.337 13.2015 10.4855 13.0831 10.6013Z" fill="#21262A"/>
</svg>
