<svg width="24" height="24" viewBox="0 0 24 24" fill="none" xmlns="http://www.w3.org/2000/svg">
<path fill-rule="evenodd" clip-rule="evenodd" d="M11.0997 9.75557C10.8089 9.75546 10.5148 9.69339 10.2354 9.56937L4.60862 7.05232L5.40222 5.26212L11.029 7.77917C11.0859 7.80531 11.1412 7.79877 11.1916 7.76284C11.242 7.72527 11.2648 7.67627 11.2583 7.6142L10.6127 1.45796L12.5527 1.25378L13.1967 7.40676C13.2764 8.16955 12.9544 8.89478 12.3365 9.34723C11.9659 9.6182 11.5353 9.7554 11.0997 9.75557ZM15.0514 11.8201C15.4199 12.0928 15.8497 12.2352 16.2855 12.2389L16.2856 12.2356C16.5766 12.2381 16.8715 12.1801 17.1522 12.0567L22.8 9.58714L22.0215 7.79033L16.3738 10.2599C16.3166 10.2856 16.2614 10.2786 16.2113 10.2422C16.1612 10.2058 16.1388 10.155 16.1459 10.093L16.8416 3.94567L14.9033 3.72517L14.2075 9.8725C14.1214 10.6362 14.4373 11.3641 15.0514 11.8201ZM18.0541 21.7949L13.974 17.1607C13.4685 16.5861 13.3095 15.8072 13.5533 15.0792C13.7956 14.3512 14.3873 13.8255 15.1368 13.6721L21.1731 12.4383L21.5611 14.3594L15.5247 15.5932C15.4628 15.6057 15.4235 15.6413 15.4034 15.7015C15.3834 15.7618 15.3943 15.8142 15.4362 15.8619L19.5162 20.4961L18.0541 21.7949ZM6.64851 22.1224L4.96256 21.136L8.06278 15.7902C8.44744 15.1268 9.13358 14.7325 9.8979 14.7354C10.6622 14.7382 11.3454 15.1377 11.725 15.8039L14.7849 21.173L13.0916 22.1467L10.0317 16.7776C9.9703 16.6696 9.81257 16.6673 9.75036 16.7765L6.65014 22.1224L6.64851 22.1224ZM3.1241 16.4964L4.56064 17.8233L4.56061 17.8266L8.73021 13.2728C9.2469 12.7066 9.41941 11.9325 9.19139 11.1999C8.96338 10.4673 8.382 9.93022 7.63568 9.76219L1.62455 8.41099L1.19922 10.3242L7.21038 11.6721C7.27041 11.6858 7.31066 11.7238 7.32955 11.7828C7.34842 11.8435 7.33647 11.8972 7.2937 11.9425L3.1241 16.4964Z" fill="#236CFF"/>
</svg>
