<svg width="60" height="60" viewBox="0 0 60 60" fill="none" xmlns="http://www.w3.org/2000/svg">
<path d="M10.9465 41.6254C10.6837 41.6254 10.4316 41.521 10.2457 41.3351C10.0599 41.1493 9.95544 40.8972 9.95544 40.6343V13.9693C9.95544 13.7065 10.0599 13.4544 10.2457 13.2685C10.4316 13.0826 10.6837 12.9782 10.9465 12.9782H17.4331C17.6435 12.0525 18.1621 11.2257 18.904 10.6335C19.6459 10.0412 20.5671 9.71863 21.5164 9.71863C22.4657 9.71863 23.3869 10.0412 24.1288 10.6335C24.8707 11.2257 25.3893 12.0525 25.5996 12.9782H32.0863C32.3491 12.9782 32.6012 13.0826 32.7871 13.2685C32.9729 13.4544 33.0773 13.7065 33.0773 13.9693V40.6343C33.0773 40.8972 32.9729 41.1493 32.7871 41.3351C32.6012 41.521 32.3491 41.6254 32.0863 41.6254H10.9465Z" fill="white"/>
<path d="M21.5164 10.7037C21.9413 10.7076 22.3614 10.7952 22.7525 10.9614C23.1436 11.1276 23.4981 11.3692 23.7958 11.6725C24.0936 11.9757 24.3286 12.3346 24.4876 12.7287C24.6466 13.1228 24.7265 13.5444 24.7225 13.9693H32.0863V40.6343H10.9465V13.9693H18.335C18.3311 13.5444 18.4109 13.1228 18.5699 12.7287C18.7289 12.3346 18.964 11.9757 19.2617 11.6725C19.5594 11.3692 19.914 11.1276 20.3051 10.9614C20.6962 10.7952 21.1162 10.7076 21.5412 10.7037H21.5164ZM21.5412 8.72156C20.506 8.72598 19.4957 9.03908 18.6394 9.6208C17.7832 10.2025 17.1199 11.0264 16.7344 11.9872H10.9465C10.4208 11.9872 9.91664 12.196 9.54492 12.5677C9.17319 12.9395 8.96436 13.4436 8.96436 13.9693V40.6343C8.96436 41.16 9.17319 41.6642 9.54492 42.0359C9.91664 42.4077 10.4208 42.6165 10.9465 42.6165H32.0863C32.612 42.6165 33.1161 42.4077 33.4879 42.0359C33.8596 41.6642 34.0684 41.16 34.0684 40.6343V13.9693C34.0684 13.4436 33.8596 12.9395 33.4879 12.5677C33.1161 12.196 32.612 11.9872 32.0863 11.9872H26.3182C25.9336 11.0268 25.2712 10.2031 24.4158 9.62134C23.5604 9.03959 22.5509 8.7263 21.5164 8.72156H21.5412Z" fill="#205EA3"/>
<g opacity="0.15" style="mix-blend-mode:multiply">
<path d="M31.67 19.8662V39.8712H11.3628L31.67 19.8662Z" fill="#5DABFF"/>
</g>
<path d="M15.337 24.2666C16.1143 24.2666 16.7444 23.6432 16.7444 22.8742C16.7444 22.1051 16.1143 21.4817 15.337 21.4817C14.5598 21.4817 13.9297 22.1051 13.9297 22.8742C13.9297 23.6432 14.5598 24.2666 15.337 24.2666Z" fill="#3492EF"/>
<path fill-rule="evenodd" clip-rule="evenodd" d="M18.9569 22.8741C18.9569 22.6538 19.1355 22.4752 19.3558 22.4752H27.9237C28.144 22.4752 28.3226 22.6538 28.3226 22.8741C28.3226 23.0944 28.144 23.273 27.9237 23.273H19.3558C19.1355 23.273 18.9569 23.0944 18.9569 22.8741Z" fill="#5DABFF"/>
<path d="M15.337 30.223C16.1143 30.223 16.7444 29.5996 16.7444 28.8306C16.7444 28.0615 16.1143 27.4381 15.337 27.4381C14.5598 27.4381 13.9297 28.0615 13.9297 28.8306C13.9297 29.5996 14.5598 30.223 15.337 30.223Z" fill="#3492EF"/>
<path fill-rule="evenodd" clip-rule="evenodd" d="M18.9569 28.8306C18.9569 28.6102 19.1355 28.4316 19.3558 28.4316H27.9237C28.144 28.4316 28.3226 28.6102 28.3226 28.8306C28.3226 29.0509 28.144 29.2295 27.9237 29.2295H19.3558C19.1355 29.2295 18.9569 29.0509 18.9569 28.8306Z" fill="#5DABFF"/>
<path d="M15.337 36.1745C16.1143 36.1745 16.7444 35.551 16.7444 34.782C16.7444 34.013 16.1143 33.3895 15.337 33.3895C14.5598 33.3895 13.9297 34.013 13.9297 34.782C13.9297 35.551 14.5598 36.1745 15.337 36.1745Z" fill="#3492EF"/>
<path fill-rule="evenodd" clip-rule="evenodd" d="M18.9569 34.782C18.9569 34.5617 19.1355 34.3831 19.3558 34.3831H27.9237C28.144 34.3831 28.3226 34.5617 28.3226 34.782C28.3226 35.0023 28.144 35.1809 27.9237 35.1809H19.3558C19.1355 35.1809 18.9569 35.0023 18.9569 34.782Z" fill="#5DABFF"/>
<path d="M21.5164 15.3767C22.3019 15.3767 22.9386 14.7466 22.9386 13.9693C22.9386 13.1921 22.3019 12.562 21.5164 12.562C20.731 12.562 20.0942 13.1921 20.0942 13.9693C20.0942 14.7466 20.731 15.3767 21.5164 15.3767Z" fill="#205EA3"/>
<path fill-rule="evenodd" clip-rule="evenodd" d="M13.9792 12.9263C14.2022 12.9263 14.383 13.1071 14.383 13.3301V17.0046H28.6447V13.3301C28.6447 13.1071 28.8255 12.9263 29.0486 12.9263C29.2716 12.9263 29.4524 13.1071 29.4524 13.3301V17.4084C29.4524 17.6315 29.2716 17.8123 29.0486 17.8123H13.9792C13.7561 17.8123 13.5753 17.6315 13.5753 17.4084V13.3301C13.5753 13.1071 13.7561 12.9263 13.9792 12.9263Z" fill="#205EA3"/>
<path d="M50.0446 26.2587H26.442V49.8612H50.0446V26.2587Z" fill="white"/>
<path fill-rule="evenodd" clip-rule="evenodd" d="M25.4509 26.2588C25.4509 25.7114 25.8946 25.2677 26.442 25.2677H50.0446C50.5919 25.2677 51.0357 25.7114 51.0357 26.2588V49.8614C51.0357 50.4087 50.5919 50.8524 50.0446 50.8524H26.442C25.8946 50.8524 25.4509 50.4087 25.4509 49.8614V26.2588ZM27.4331 27.2499V48.8703H49.0535V27.2499H27.4331Z" fill="#205EA3"/>
<path d="M41.5263 26.9673H34.9703V32.4926H41.5263V26.9673Z" fill="#5DABFF"/>
<path d="M41.7394 35.1884H34.7573C34.3221 35.1884 33.9694 35.5411 33.9694 35.9763V36.7047C33.9694 37.1399 34.3221 37.4926 34.7573 37.4926H41.7394C42.1746 37.4926 42.5273 37.1399 42.5273 36.7047V35.9763C42.5273 35.5411 42.1746 35.1884 41.7394 35.1884Z" fill="#205EA3"/>
<g opacity="0.15" style="mix-blend-mode:multiply">
<path d="M34.559 48.4936H48.6472V34.4004L34.559 48.4936Z" fill="#5DABFF"/>
</g>
</svg>
