<svg width="26" height="26" viewBox="0 0 26 26" fill="none" xmlns="http://www.w3.org/2000/svg">
<path d="M12.8507 25.7028C19.9479 25.7028 25.7013 19.9491 25.7013 12.8514C25.7013 5.75378 19.9479 0 12.8507 0C5.75344 0 0 5.75378 0 12.8514C0 19.9491 5.75344 25.7028 12.8507 25.7028Z" fill="#0077C5"/>
<path d="M12.8506 0C19.9478 0 25.7012 5.75392 25.7012 12.8516C25.7011 19.9491 19.9478 25.7031 12.8506 25.7031C5.75344 25.7031 7.78229e-05 19.9491 0 12.8516C0 5.75395 5.7534 4.4844e-05 12.8506 0ZM19.2734 8.36328C18.9002 8.20865 18.4704 8.29433 18.1846 8.58008L7.71387 19.0518L8.41992 19.7588C8.81034 20.1491 9.44359 20.1492 9.83398 19.7588L17.8916 11.7002V17.7041C17.8916 18.2561 18.3396 18.7042 18.8916 18.7041H19.8906V9.28711C19.8906 8.88271 19.6471 8.51818 19.2734 8.36328ZM6.99902 6.85449C6.99906 7.40632 7.44624 7.85332 7.99805 7.85352H14.002L5.94434 15.9121C5.5539 16.3026 5.5539 16.9357 5.94434 17.3262L6.65039 18.0332L17.1221 7.56152C17.4079 7.27562 17.4936 6.84498 17.3389 6.47168C17.184 6.09801 16.8194 5.85455 16.415 5.85449H6.99902V6.85449Z" fill="white"/>
</svg>
