<svg width="22" height="22" viewBox="0 0 22 22" fill="none" xmlns="http://www.w3.org/2000/svg">
<path d="M10.0113 15.5844C9.82906 15.5846 9.6509 15.5304 9.49959 15.4288C9.34828 15.3272 9.23067 15.1829 9.16181 15.0141C9.09294 14.8454 9.07592 14.66 9.11294 14.4815C9.14996 14.3031 9.23933 14.1397 9.36964 14.0123L11.5082 11.9177H8.25222C8.07017 11.9177 7.89224 11.8635 7.74113 11.7619C7.59002 11.6604 7.47256 11.5162 7.40373 11.3476C7.3349 11.1791 7.31781 10.9939 7.35464 10.8156C7.39148 10.6373 7.48057 10.474 7.61055 10.3466L11.3506 6.6854C11.5244 6.51522 11.7587 6.42106 12.0019 6.42364C12.2452 6.42622 12.4775 6.52532 12.6476 6.69915C12.8178 6.87298 12.912 7.10729 12.9094 7.35054C12.9068 7.59379 12.8077 7.82605 12.6339 7.99623L10.4962 10.0844L13.7522 10.089C13.9345 10.0888 14.1126 10.143 14.2639 10.2446C14.4152 10.3461 14.5328 10.4905 14.6017 10.6592C14.6706 10.828 14.6876 11.0134 14.6506 11.1918C14.6136 11.3703 14.5242 11.5337 14.3939 11.6611L10.6539 15.3213C10.4825 15.4899 10.2517 15.5844 10.0113 15.5844Z" fill="#21262A"/>
<path d="M11.0021 20.1673H10.9875C8.55631 20.1654 6.2255 19.1977 4.5078 17.4773C2.79009 15.7568 1.82618 13.4245 1.82813 10.9933C1.83007 8.56217 2.79771 6.23136 4.51817 4.51366C6.23863 2.79595 8.57098 1.83204 11.0021 1.83399H11.0159C13.447 1.83581 15.7779 2.80333 17.4957 4.5237C19.2135 6.24408 20.1775 8.57638 20.1757 11.0075C20.1738 13.4387 19.2063 15.7695 17.486 17.4873C15.7656 19.2051 13.4333 20.1691 11.0021 20.1673ZM11.0021 3.66732C9.05721 3.66586 7.19137 4.43708 5.81507 5.81132C4.43877 7.18555 3.66475 9.05023 3.66329 10.9952C3.66184 12.9401 4.43305 14.8059 5.80729 16.1822C7.18152 17.5585 9.04621 18.3325 10.9911 18.334H11.0021C12.947 18.3353 14.8128 17.564 16.1891 16.1897C17.5653 14.8153 18.3392 12.9506 18.3405 11.0057C18.3418 9.06077 17.5705 7.19498 16.1962 5.81877C14.8219 4.44256 12.9571 3.66866 11.0122 3.66732H11.0021Z" fill="#21262A"/>
</svg>
