<svg width="16" height="16" viewBox="0 0 16 16" fill="none" xmlns="http://www.w3.org/2000/svg">
  <path d="M8 1.5C8 1.5 5 5 5 9H11C11 5 8 1.5 8 1.5Z" fill="currentColor" opacity="0.15" stroke="currentColor" stroke-width="1.25" stroke-linejoin="round"/>
  <path d="M8 1.5C8 1.5 5 5 5 9H11C11 5 8 1.5 8 1.5Z" stroke="currentColor" stroke-width="1.25" stroke-linejoin="round"/>
  <path d="M5 9L3.5 11H5.5" stroke="currentColor" stroke-width="1.25" stroke-linecap="round" stroke-linejoin="round"/>
  <path d="M11 9L12.5 11H10.5" stroke="currentColor" stroke-width="1.25" stroke-linecap="round" stroke-linejoin="round"/>
  <path d="M5.5 11H10.5V12.5C10.5 12.5 9.5 14 8 14C6.5 14 5.5 12.5 5.5 12.5V11Z" stroke="currentColor" stroke-width="1.25" stroke-linejoin="round"/>
  <circle cx="8" cy="6.5" r="1.25" fill="currentColor"/>
</svg>
