<svg width="36" height="36" viewBox="0 0 36 36" fill="none" xmlns="http://www.w3.org/2000/svg">
<path d="M23 10H21.816C21.6099 9.41709 21.2288 8.91209 20.7247 8.55409C20.2206 8.19608 19.6183 8.00256 19 8H17C16.3817 8.00256 15.7794 8.19608 15.2753 8.55409C14.7712 8.91209 14.3901 9.41709 14.184 10H13C12.2044 10 11.4413 10.3161 10.8787 10.8787C10.3161 11.4413 10 12.2044 10 13V25C10 25.7956 10.3161 26.5587 10.8787 27.1213C11.4413 27.6839 12.2044 28 13 28H23C23.7956 28 24.5587 27.6839 25.1213 27.1213C25.6839 26.5587 26 25.7956 26 25V13C26 12.2044 25.6839 11.4413 25.1213 10.8787C24.5587 10.3161 23.7956 10 23 10ZM17 10H19C19.2652 10 19.5196 10.1054 19.7071 10.2929C19.8946 10.4804 20 10.7348 20 11V12H16V11C16 10.7348 16.1054 10.4804 16.2929 10.2929C16.4804 10.1054 16.7348 10 17 10ZM24 25C24 25.2652 23.8946 25.5196 23.7071 25.7071C23.5196 25.8946 23.2652 26 23 26H13C12.7348 26 12.4804 25.8946 12.2929 25.7071C12.1054 25.5196 12 25.2652 12 25V13C12 12.7348 12.1054 12.4804 12.2929 12.2929C12.4804 12.1054 12.7348 12 13 12H14V13C14 13.2652 14.1054 13.5196 14.2929 13.7071C14.4804 13.8946 14.7348 14 15 14H21C21.2652 14 21.5196 13.8946 21.7071 13.7071C21.8946 13.5196 22 13.2652 22 13V12H23C23.2652 12 23.5196 12.1054 23.7071 12.2929C23.8946 12.4804 24 12.7348 24 13V25Z" fill="#5D686F"/>
<path d="M13.3167 16.243L13.282 16.2777C12.9052 16.6545 12.9052 17.2655 13.282 17.6424L13.3167 17.677C13.6935 18.0539 14.3045 18.0539 14.6814 17.677L14.716 17.6424C15.0929 17.2655 15.0929 16.6545 14.716 16.2777L14.6814 16.243C14.3045 15.8662 13.6935 15.8662 13.3167 16.243Z" fill="#5D686F"/>
<path d="M13.317 19.2434L13.2824 19.278C12.9055 19.6549 12.9055 20.2659 13.2824 20.6427L13.317 20.6774C13.6939 21.0542 14.3049 21.0542 14.6817 20.6774L14.7164 20.6427C15.0932 20.2659 15.0932 19.6549 14.7164 19.278L14.6817 19.2434C14.3049 18.8665 13.6939 18.8665 13.317 19.2434Z" fill="#5D686F"/>
<path d="M13.3173 22.2427L13.2827 22.2773C12.9058 22.6542 12.9058 23.2652 13.2827 23.642L13.3173 23.6767C13.6942 24.0535 14.3052 24.0535 14.682 23.6767L14.7167 23.642C15.0935 23.2652 15.0935 22.6542 14.7167 22.2773L14.682 22.2427C14.3052 21.8658 13.6942 21.8658 13.3173 22.2427Z" fill="#5D686F"/>
</svg>
