<svg width="48" height="40" viewBox="0 0 48 40" fill="none" xmlns="http://www.w3.org/2000/svg">
<path d="M22.9192 26.5C22.7204 26.5002 22.526 26.4411 22.361 26.3303C22.1959 26.2195 22.0676 26.062 21.9925 25.8779C21.9173 25.6938 21.8988 25.4915 21.9392 25.2969C21.9795 25.1022 22.077 24.924 22.2192 24.785L24.5522 22.5H21.0002C20.8016 22.5 20.6075 22.4408 20.4426 22.33C20.2778 22.2193 20.1497 22.062 20.0746 21.8781C19.9995 21.6942 19.9808 21.4922 20.021 21.2977C20.0612 21.1032 20.1584 20.9251 20.3002 20.786L24.3802 16.792C24.5698 16.6064 24.8254 16.5036 25.0908 16.5064C25.3562 16.5093 25.6095 16.6174 25.7952 16.807C25.9808 16.9966 26.0836 17.2522 26.0807 17.5176C26.0779 17.783 25.9698 18.0364 25.7802 18.222L23.4482 20.5L27.0002 20.505C27.199 20.5048 27.3934 20.5639 27.5584 20.6747C27.7235 20.7855 27.8518 20.943 27.9269 21.1271C28.002 21.3112 28.0206 21.5135 27.9802 21.7081C27.9398 21.9028 27.8423 22.081 27.7002 22.22L23.6202 26.213C23.4332 26.3969 23.1815 26.5 22.9192 26.5Z" fill="#5D686F"/>
<path d="M24.0002 31.5H23.9842C21.332 31.4979 18.7893 30.4423 16.9155 28.5654C15.0416 26.6885 13.9901 24.1442 13.9922 21.492C13.9943 18.8398 15.0499 16.2971 16.9268 14.4233C18.8036 12.5494 21.348 11.4979 24.0002 11.5H24.0152C26.6674 11.502 29.2101 12.5575 31.0841 14.4342C32.958 16.311 34.0097 18.8553 34.0077 21.5075C34.0057 24.1597 32.9502 26.7024 31.0735 28.5764C29.1967 30.4503 26.6524 31.502 24.0002 31.5ZM24.0002 13.5C21.8785 13.4984 19.843 14.3397 18.3416 15.8389C16.8402 17.3381 15.9958 19.3723 15.9942 21.494C15.9926 23.6157 16.8339 25.6512 18.3331 27.1526C19.8323 28.654 21.8665 29.4984 23.9882 29.5H24.0002C26.1219 29.5015 28.1573 28.66 29.6587 27.1607C31.16 25.6615 32.0042 23.6272 32.0057 21.5055C32.0072 19.3838 31.1657 17.3484 29.6664 15.847C28.1672 14.3457 26.1329 13.5015 24.0112 13.5H24.0002Z" fill="#5D686F"/>
</svg>
