<svg width="48" height="40" viewBox="0 0 48 40" fill="none" xmlns="http://www.w3.org/2000/svg">
<path d="M24 31.5001C23.8274 31.5001 23.6578 31.4554 23.5077 31.3704C23.3575 31.2854 23.2319 31.163 23.143 31.0151L21.033 27.5001H18.57C17.3677 27.5078 16.2114 27.0384 15.3547 26.1949C14.498 25.3513 14.0108 24.2024 14 23.0001V16.0001C14.0106 14.7977 14.4977 13.6487 15.3544 12.8051C16.2112 11.9614 17.3676 11.4921 18.57 11.5001H29.43C30.6324 11.4921 31.7888 11.9614 32.6456 12.8051C33.5023 13.6487 33.9894 14.7977 34 16.0001V23.0001C33.9892 24.2024 33.502 25.3513 32.6453 26.1949C31.7886 27.0384 30.6323 27.5078 29.43 27.5001H26.967L24.857 31.0151C24.7681 31.163 24.6425 31.2854 24.4923 31.3704C24.3422 31.4554 24.1726 31.5001 24 31.5001ZM18.57 13.5001C17.8979 13.4916 17.2498 13.75 16.768 14.2187C16.2862 14.6873 16.01 15.328 16 16.0001V23.0001C16.01 23.6722 16.2862 24.3129 16.768 24.7815C17.2498 25.2502 17.8979 25.5086 18.57 25.5001H21.6C21.7726 25.5001 21.9422 25.5448 22.0923 25.6298C22.2425 25.7148 22.3681 25.8372 22.457 25.9851L24 28.5571L25.543 25.9851C25.6319 25.8372 25.7575 25.7148 25.9077 25.6298C26.0578 25.5448 26.2274 25.5001 26.4 25.5001H29.43C30.1021 25.5086 30.7502 25.2502 31.232 24.7815C31.7138 24.3129 31.99 23.6722 32 23.0001V16.0001C31.99 15.328 31.7138 14.6873 31.232 14.2187C30.7502 13.75 30.1021 13.4916 29.43 13.5001H18.57Z" fill="#5D686F"/>
<path d="M20 20.5001C20.5523 20.5001 21 20.0524 21 19.5001C21 18.9478 20.5523 18.5001 20 18.5001C19.4477 18.5001 19 18.9478 19 19.5001C19 20.0524 19.4477 20.5001 20 20.5001Z" fill="#5D686F"/>
<path d="M24 20.5001C24.5523 20.5001 25 20.0524 25 19.5001C25 18.9478 24.5523 18.5001 24 18.5001C23.4477 18.5001 23 18.9478 23 19.5001C23 20.0524 23.4477 20.5001 24 20.5001Z" fill="#5D686F"/>
<path d="M28 20.5001C28.5523 20.5001 29 20.0524 29 19.5001C29 18.9478 28.5523 18.5001 28 18.5001C27.4477 18.5001 27 18.9478 27 19.5001C27 20.0524 27.4477 20.5001 28 20.5001Z" fill="#5D686F"/>
</svg>
