<svg width="48" height="40" viewBox="0 0 48 40" fill="none" xmlns="http://www.w3.org/2000/svg">
<path d="M33 19.5H30V16.5C30 15.7044 29.6839 14.9413 29.1213 14.3787C28.5587 13.8161 27.7956 13.5 27 13.5H25.816C25.6099 12.9171 25.2288 12.4121 24.7247 12.0541C24.2206 11.6961 23.6183 11.5026 23 11.5H21C20.3817 11.5026 19.7794 11.6961 19.2753 12.0541C18.7712 12.4121 18.3901 12.9171 18.184 13.5H17C16.2044 13.5 15.4413 13.8161 14.8787 14.3787C14.3161 14.9413 14 15.7044 14 16.5V28.5C14 29.2956 14.3161 30.0587 14.8787 30.6213C15.4413 31.1839 16.2044 31.5 17 31.5H32.188C32.7184 31.5 33.2271 31.2893 33.6022 30.9142C33.9773 30.5391 34.188 30.0304 34.188 29.5V24.462C34.4143 24.4214 34.6192 24.3031 34.7675 24.1275C34.9158 23.9518 34.998 23.7299 35 23.5V21.5C35 20.9696 34.7893 20.4609 34.4142 20.0858C34.0391 19.7107 33.5304 19.5 33 19.5ZM33 22.5H23V21.5H33V22.5ZM21 13.5H23C23.2652 13.5 23.5196 13.6054 23.7071 13.7929C23.8946 13.9804 24 14.2348 24 14.5V15.5H20V14.5C20 14.2348 20.1054 13.9804 20.2929 13.7929C20.4804 13.6054 20.7348 13.5 21 13.5ZM16 28.5V16.5C16 16.2348 16.1054 15.9804 16.2929 15.7929C16.4804 15.6054 16.7348 15.5 17 15.5H18V16.5C18 16.7652 18.1054 17.0196 18.2929 17.2071C18.4804 17.3946 18.7348 17.5 19 17.5H25C25.2652 17.5 25.5196 17.3946 25.7071 17.2071C25.8946 17.0196 26 16.7652 26 16.5V15.5H27C27.2652 15.5 27.5196 15.6054 27.7071 15.7929C27.8946 15.9804 28 16.2348 28 16.5V19.5H23C22.4696 19.5 21.9609 19.7107 21.5858 20.0858C21.2107 20.4609 21 20.9696 21 21.5V23.5C21.002 23.7299 21.0842 23.9518 21.2325 24.1275C21.3808 24.3031 21.5857 24.4214 21.812 24.462V29.5H17C16.7348 29.5 16.4804 29.3946 16.2929 29.2071C16.1054 29.0196 16 28.7652 16 28.5ZM23.812 29.5V24.5H32.188V29.5H23.812Z" fill="#5D686F"/>
<path d="M29 25.5H27C26.7348 25.5 26.4804 25.6054 26.2929 25.7929C26.1054 25.9804 26 26.2348 26 26.5C26 26.7652 26.1054 27.0196 26.2929 27.2071C26.4804 27.3946 26.7348 27.5 27 27.5H29C29.2652 27.5 29.5196 27.3946 29.7071 27.2071C29.8946 27.0196 30 26.7652 30 26.5C30 26.2348 29.8946 25.9804 29.7071 25.7929C29.5196 25.6054 29.2652 25.5 29 25.5Z" fill="#5D686F"/>
</svg>
