<svg width="48" height="40" viewBox="0 0 48 40" fill="none" xmlns="http://www.w3.org/2000/svg">
<path d="M29.118 17.5L30.9 13.947C30.9764 13.7941 31.0123 13.6242 31.0044 13.4535C30.9964 13.2828 30.9449 13.117 30.8546 12.9718C30.7644 12.8267 30.6384 12.7071 30.4888 12.6245C30.3392 12.5419 30.1709 12.4991 30 12.5H19C19 12.2348 18.8946 11.9804 18.7071 11.7929C18.5196 11.6054 18.2652 11.5 18 11.5C17.7348 11.5 17.4804 11.6054 17.2929 11.7929C17.1054 11.9804 17 12.2348 17 12.5V30.5C17 30.7652 17.1054 31.0196 17.2929 31.2071C17.4804 31.3946 17.7348 31.5 18 31.5C18.2652 31.5 18.5196 31.3946 18.7071 31.2071C18.8946 31.0196 19 30.7652 19 30.5V22.5H30C30.1705 22.5001 30.3381 22.4566 30.4871 22.3736C30.636 22.2907 30.7613 22.171 30.8509 22.026C30.9406 21.881 30.9917 21.7155 30.9994 21.5452C31.0072 21.3749 30.9712 21.2055 30.895 21.053L29.118 17.5ZM27.105 17.947L28.382 20.5H19V14.5H28.382L27.105 17.053C27.0356 17.1918 26.9995 17.3448 26.9995 17.5C26.9995 17.6552 27.0356 17.8082 27.105 17.947Z" fill="#5D686F"/>
</svg>
