<svg width="48" height="40" viewBox="0 0 48 40" fill="none" xmlns="http://www.w3.org/2000/svg">
<path d="M25.0104 16.5C24.7452 16.5 24.4908 16.6054 24.3033 16.7929C24.1158 16.9804 24.0104 17.2348 24.0104 17.5L24.0034 21.5C24.0034 21.7652 24.1088 22.0196 24.2963 22.2071C24.4838 22.3946 24.7382 22.5 25.0034 22.5L28.5594 22.506C28.8246 22.506 29.079 22.4006 29.2665 22.2131C29.454 22.0256 29.5594 21.7712 29.5594 21.506C29.5594 21.2408 29.454 20.9864 29.2665 20.7989C29.079 20.6114 28.8246 20.506 28.5594 20.506L26.0034 20.5L26.0084 17.5C26.0084 17.2351 25.9033 16.9811 25.7162 16.7936C25.5291 16.6061 25.2753 16.5005 25.0104 16.5Z" fill="#5D686F"/>
<path d="M31.3774 15.147C30.545 14.3071 29.5543 13.6407 28.4626 13.1864C27.3709 12.732 26.1999 12.4987 25.0174 12.5H25.0034C22.6873 12.4979 20.46 13.3907 18.7866 14.9919C17.1132 16.5932 16.1232 18.7791 16.0234 21.093L15.7114 20.781C15.5231 20.5986 15.2706 20.4974 15.0084 20.4993C14.7462 20.5012 14.4952 20.606 14.3095 20.7912C14.1238 20.9763 14.0183 21.227 14.0157 21.4892C14.013 21.7514 14.1135 22.0041 14.2954 22.193L16.2954 24.193C16.4829 24.3805 16.7372 24.4858 17.0024 24.4858C17.2676 24.4858 17.5219 24.3805 17.7094 24.193L19.7094 22.193C19.8918 22.0047 19.993 21.7522 19.9911 21.49C19.9892 21.2278 19.8844 20.9768 19.6992 20.7911C19.5141 20.6055 19.2634 20.4999 19.0012 20.4973C18.739 20.4946 18.4863 20.5951 18.2974 20.777L18.0254 21.049C18.1362 19.2742 18.9198 17.6084 20.2164 16.3915C21.5131 15.1746 23.2251 14.4981 25.0034 14.5H25.0154C26.8719 14.5016 28.6518 15.2406 29.9634 16.5545C31.275 17.8684 32.011 19.6495 32.0094 21.506C32.0078 23.3625 31.2688 25.1424 29.9549 26.454C28.641 27.7656 26.8599 28.5016 25.0034 28.5H24.9914C23.2787 28.4963 21.6268 27.8648 20.3484 26.725C20.1503 26.5486 19.8902 26.4582 19.6254 26.4736C19.3606 26.4889 19.1128 26.6089 18.9364 26.807C18.76 27.0051 18.6696 27.2652 18.685 27.53C18.7003 27.7948 18.8203 28.0426 19.0184 28.219C20.6623 29.6848 22.7869 30.4964 24.9894 30.5H25.0034C26.782 30.4998 28.5207 29.9726 30 28.985C31.4792 27.9974 32.6326 26.5936 33.3146 24.9509C33.9966 23.3082 34.1766 21.5003 33.8318 19.7554C33.487 18.0105 32.6329 16.4069 31.3774 15.147Z" fill="#5D686F"/>
</svg>
