<svg width="20" height="20" viewBox="0 0 20 20" fill="none" xmlns="http://www.w3.org/2000/svg">
<path d="M14.8669 1.88154C14.7652 1.59499 14.4002 1.59499 14.2985 1.88154L13.4216 4.35195C13.3905 4.43943 13.3282 4.50869 13.2495 4.54319L11.0261 5.51751C10.7682 5.63052 10.7682 6.03607 11.0261 6.14908L13.2495 7.12339C13.3282 7.1579 13.3905 7.22715 13.4216 7.31464L14.2985 9.78504C14.4002 10.0716 14.7652 10.0716 14.8669 9.78504L15.7438 7.31464C15.7748 7.22715 15.8372 7.1579 15.9159 7.12339L18.1393 6.14908C18.3972 6.03606 18.3972 5.63052 18.1393 5.5175L15.9159 4.54319C15.8372 4.50869 15.7748 4.43943 15.7438 4.35195L14.8669 1.88154Z" fill="#236CFF"/>
<path d="M7.83279 6.07643C7.71346 5.75225 7.28524 5.75225 7.16591 6.07643L5.7316 9.97292C5.69517 10.0719 5.62205 10.1502 5.52967 10.1893L1.89295 11.726C1.59037 11.8539 1.59037 12.3127 1.89294 12.4406L5.52967 13.9773C5.62205 14.0163 5.69517 14.0947 5.7316 14.1937L7.16591 18.0902C7.28524 18.4143 7.71346 18.4143 7.83279 18.0902L9.26709 14.1937C9.30353 14.0947 9.37665 14.0163 9.46903 13.9773L13.1058 12.4406C13.4083 12.3127 13.4083 11.8539 13.1058 11.726L9.46903 10.1893C9.37665 10.1502 9.30353 10.0719 9.26709 9.97292L7.83279 6.07643Z" fill="#236CFF"/>
</svg>
