<svg width="24" height="24" viewBox="0 0 24 24" fill="none" xmlns="http://www.w3.org/2000/svg">
<path d="M21.7063 18.289C21.6133 18.1953 21.5027 18.1209 21.3809 18.0701C21.259 18.0194 21.1283 17.9932 20.9963 17.9932C20.8643 17.9932 20.7336 18.0194 20.6117 18.0701C20.4898 18.1209 20.3792 18.1953 20.2863 18.289L19.9963 18.589V14.999C19.9963 14.7338 19.8909 14.4795 19.7034 14.2919C19.5159 14.1044 19.2615 13.999 18.9963 13.999C18.7311 13.999 18.4767 14.1044 18.2892 14.2919C18.1016 14.4795 17.9963 14.7338 17.9963 14.999V18.589L17.7063 18.289C17.613 18.1958 17.5023 18.1218 17.3805 18.0714C17.2587 18.0209 17.1281 17.9949 16.9963 17.9949C16.8644 17.9949 16.7339 18.0209 16.612 18.0714C16.4902 18.1218 16.3795 18.1958 16.2863 18.289C16.193 18.3823 16.1191 18.493 16.0686 18.6148C16.0182 18.7366 15.9922 18.8672 15.9922 18.999C15.9922 19.1309 16.0182 19.2614 16.0686 19.3833C16.1191 19.5051 16.193 19.6158 16.2863 19.709L18.2863 21.709C18.3814 21.8001 18.4935 21.8714 18.6163 21.919C18.736 21.9719 18.8654 21.9993 18.9963 21.9993C19.1271 21.9993 19.2566 21.9719 19.3763 21.919C19.499 21.8714 19.6112 21.8001 19.7063 21.709L21.7063 19.709C21.8 19.6161 21.8744 19.5055 21.9252 19.3836C21.9759 19.2617 22.0021 19.131 22.0021 18.999C22.0021 18.867 21.9759 18.7363 21.9252 18.6144C21.8744 18.4926 21.8 18.382 21.7063 18.289Z" fill="#21262A"/>
<path d="M7.70628 4.28892L5.70628 2.28892C5.61118 2.19788 5.49903 2.12651 5.37628 2.07892C5.13282 1.9789 4.85974 1.9789 4.61628 2.07892C4.49353 2.12651 4.38138 2.19788 4.28628 2.28892L2.28628 4.28892C2.09798 4.47722 1.99219 4.73262 1.99219 4.99892C1.99219 5.13078 2.01816 5.26135 2.06862 5.38317C2.11908 5.50499 2.19304 5.61568 2.28628 5.70892C2.37952 5.80216 2.49021 5.87612 2.61203 5.92658C2.73385 5.97704 2.86442 6.00301 2.99628 6.00301C3.26258 6.00301 3.51798 5.89722 3.70628 5.70892L3.99628 5.40892V8.99892C3.99628 9.26414 4.10164 9.51849 4.28917 9.70603C4.47671 9.89356 4.73106 9.99892 4.99628 9.99892C5.2615 9.99892 5.51585 9.89356 5.70339 9.70603C5.89092 9.51849 5.99628 9.26414 5.99628 8.99892V5.40892L6.28628 5.70892C6.37924 5.80265 6.48984 5.87704 6.6117 5.92781C6.73356 5.97858 6.86427 6.00472 6.99628 6.00472C7.12829 6.00472 7.259 5.97858 7.38086 5.92781C7.50272 5.87704 7.61332 5.80265 7.70628 5.70892C7.80001 5.61596 7.8744 5.50536 7.92517 5.3835C7.97594 5.26164 8.00208 5.13093 8.00208 4.99892C8.00208 4.86691 7.97594 4.7362 7.92517 4.61434C7.8744 4.49248 7.80001 4.38188 7.70628 4.28892Z" fill="#21262A"/>
<path d="M12.9962 11.089H10.9962C10.719 11.089 10.4532 10.9789 10.2572 10.783C10.0613 10.587 9.95117 10.3212 9.95117 10.044C9.95117 9.76687 10.0613 9.50107 10.2572 9.3051C10.4532 9.10912 10.719 8.99902 10.9962 8.99902H14.9962C15.2614 8.99902 15.5157 8.89367 15.7033 8.70613C15.8908 8.51859 15.9962 8.26424 15.9962 7.99902C15.9962 7.73381 15.8908 7.47945 15.7033 7.29192C15.5157 7.10438 15.2614 6.99902 14.9962 6.99902H12.9962C12.9962 6.73381 12.8908 6.47945 12.7033 6.29192C12.5157 6.10438 12.2614 5.99902 11.9962 5.99902C11.731 5.99902 11.4766 6.10438 11.2891 6.29192C11.1015 6.47945 10.9962 6.73381 10.9962 6.99902C10.1886 6.99902 9.41408 7.31984 8.84303 7.89088C8.27198 8.46193 7.95117 9.23644 7.95117 10.044C7.95117 10.8516 8.27198 11.6261 8.84303 12.1972C9.41408 12.7682 10.1886 13.089 10.9962 13.089H12.9962C13.1458 13.0425 13.3043 13.0319 13.4589 13.0579C13.6134 13.0839 13.7596 13.1459 13.8858 13.2389C14.012 13.3318 14.1146 13.4531 14.1853 13.5929C14.2559 13.7328 14.2928 13.8873 14.2928 14.044C14.2928 14.2007 14.2559 14.3553 14.1853 14.4951C14.1146 14.635 14.012 14.7563 13.8858 14.8492C13.7596 14.9421 13.6134 15.0041 13.4589 15.0301C13.3043 15.0562 13.1458 15.0455 12.9962 14.999H8.99617C8.73096 14.999 8.4766 15.1044 8.28907 15.2919C8.10153 15.4795 7.99617 15.7338 7.99617 15.999C7.99617 16.2642 8.10153 16.5186 8.28907 16.7061C8.4766 16.8937 8.73096 16.999 8.99617 16.999H10.9962C10.9962 17.2642 11.1015 17.5186 11.2891 17.7061C11.4766 17.8937 11.731 17.999 11.9962 17.999C12.2614 17.999 12.5157 17.8937 12.7033 17.7061C12.8908 17.5186 12.9962 17.2642 12.9962 16.999C13.4274 17.0746 13.8699 17.0548 14.2927 16.9412C14.7155 16.8275 15.1083 16.6227 15.4435 16.3411C15.7787 16.0595 16.0482 15.7079 16.2331 15.3111C16.418 14.9143 16.5138 14.4818 16.5138 14.044C16.5138 13.6062 16.418 13.1737 16.2331 12.7769C16.0482 12.3801 15.7787 12.0286 15.4435 11.747C15.1083 11.4654 14.7155 11.2606 14.2927 11.1469C13.8699 11.0332 13.4274 11.0135 12.9962 11.089Z" fill="#21262A"/>
</svg>
