<svg width="20" height="20" viewBox="0 0 20 20" fill="none" xmlns="http://www.w3.org/2000/svg">
<path fill-rule="evenodd" clip-rule="evenodd" d="M5 4.16667C4.53976 4.16667 4.16667 4.53976 4.16667 5V15C4.16667 15.4602 4.53976 15.8333 5 15.8333H15C15.4602 15.8333 15.8333 15.4602 15.8333 15V7.08333C15.8333 6.6231 15.4602 6.25 15 6.25V13.3333C15 13.7936 14.6269 14.1667 14.1667 14.1667C13.7064 14.1667 13.3333 13.7936 13.3333 13.3333V5C13.3333 4.53976 12.9602 4.16667 12.5 4.16667H5ZM14.9654 4.58333C14.7671 3.40095 13.7387 2.5 12.5 2.5H5C3.61929 2.5 2.5 3.61929 2.5 5V15C2.5 16.3807 3.61929 17.5 5 17.5H15C16.3807 17.5 17.5 16.3807 17.5 15V7.08333C17.5 5.70262 16.3807 4.58333 15 4.58333H14.9654ZM5.41667 7.5C5.41667 7.03976 5.78976 6.66667 6.25 6.66667H10.4167C10.8769 6.66667 11.25 7.03976 11.25 7.5C11.25 7.96024 10.8769 8.33333 10.4167 8.33333H6.25C5.78976 8.33333 5.41667 7.96024 5.41667 7.5Z" fill="white"/>
</svg>
