<svg width="22" height="20" viewBox="0 0 22 20" fill="none" xmlns="http://www.w3.org/2000/svg">
<path fill-rule="evenodd" clip-rule="evenodd" d="M12.6465 2.34618L12.6475 2.34423C9.85208 2.17672 7.40549 3.90413 6.35644 6.2534C5.11038 6.7805 4.09252 7.77486 3.58593 9.07176C1.57461 9.5824 0.0910216 11.3203 0.0107329 13.5054C-0.167358 16.1292 1.89316 18.3962 4.53026 18.479L4.54589 18.48H16.0107C19.0458 18.4797 21.4514 16.1468 21.6308 13.1304L21.6318 13.1177V13.104C21.7035 10.9128 20.5 9.02033 18.8144 8.04051C18.4343 4.95422 15.8684 2.49718 12.6465 2.34618ZM8.05956 7.3745C8.71454 5.55597 10.5293 4.22179 12.5273 4.3413H12.5351L12.543 4.34227C14.9294 4.44903 16.793 6.37737 16.8613 8.70165L16.8799 9.33446L17.4609 9.58837C18.7269 10.1413 19.681 11.4807 19.6318 13.0347C19.5031 15.0101 17.9529 16.4797 16.0107 16.48H4.59276C3.0818 16.4325 1.90492 15.1281 2.00585 13.6411L2.0078 13.6216V13.602C2.049 12.1876 3.08192 11.0988 4.47069 10.9399L5.16308 10.8608L5.32812 10.1831C5.58418 9.13117 6.38304 8.31817 7.42089 7.98876L7.89257 7.83934L8.05956 7.3745ZM14.085 6.75615C14.1501 6.88636 14.1501 7.10027 14.085 7.17468L11.8901 9.65794H13.5921C13.7316 9.65794 13.8618 9.74164 13.9455 9.88115C14.0199 10.0951 14.0199 10.2253 13.8618 10.3741L9.96486 14.857C9.95996 14.8613 9.95506 14.8656 9.95014 14.8699C9.88037 14.9316 9.80686 14.9965 9.67654 14.9965C9.61144 14.9965 9.52773 14.9965 9.47193 14.9221C9.32312 14.7733 9.23941 14.5687 9.32312 14.4291L10.96 11.3692H9.38822C9.32312 11.3692 9.18361 11.3041 9.09991 11.2297C9.0348 11.0809 9.0348 10.9507 9.0348 10.867L10.6717 6.75615C10.7461 6.59804 10.8856 6.53293 11.0251 6.53293H13.7316C13.9455 6.53293 14.085 6.59804 14.085 6.75615Z" fill="white"/>
</svg>
