<svg width="20" height="20" viewBox="0 0 20 20" fill="none" xmlns="http://www.w3.org/2000/svg">
<path d="M17.5727 3.22099C17.3401 3.06983 17.0733 2.97935 16.7967 2.95781C16.5201 2.93627 16.2426 2.98435 15.9893 3.09766L12.4994 4.65682L7.83935 2.57349C7.73237 2.52569 7.61652 2.50098 7.49935 2.50098C7.38218 2.50098 7.26632 2.52569 7.15935 2.57349L2.65185 4.58849C2.35806 4.71998 2.10863 4.93372 1.93369 5.20389C1.75874 5.47407 1.66578 5.78912 1.66602 6.11099V15.3818C1.66615 15.6597 1.73577 15.9332 1.86855 16.1773C2.00133 16.4215 2.19304 16.6285 2.42625 16.7797C2.65947 16.9308 2.92677 17.0212 3.20384 17.0427C3.48091 17.0642 3.75896 17.016 4.01268 16.9027L7.49935 15.3435L12.1594 17.4268C12.2663 17.4746 12.3822 17.4993 12.4994 17.4993C12.6165 17.4993 12.7324 17.4746 12.8394 17.4268L17.3468 15.411C17.6404 15.2796 17.8896 15.0661 18.0646 14.7963C18.2395 14.5264 18.3326 14.2117 18.3327 13.8902V4.61932C18.3333 4.34124 18.264 4.06747 18.1312 3.82314C17.9984 3.57881 17.8063 3.37176 17.5727 3.22099ZM8.33268 4.61932L11.666 6.11016V15.381L8.33268 13.8902V4.61932ZM3.33268 15.3818V6.11099L6.66602 4.61932V13.8902L3.33268 15.3818ZM16.666 13.8902L13.3327 15.381V6.11016L16.666 4.61932V13.8902Z" fill="white"/>
</svg>
