<svg width="20" height="20" viewBox="0 0 20 20" fill="none" xmlns="http://www.w3.org/2000/svg">
<path d="M3.33398 12.4998C3.33398 13.8806 4.45327 14.9998 5.83399 14.9998V13.3332C5.37375 13.3332 5.00065 12.9601 5.00065 12.4998L5.00065 4.1665C5.00065 3.70627 5.37375 3.33317 5.83398 3.33317L11.6673 3.33317C12.1276 3.33317 12.5007 3.70627 12.5007 4.1665H14.1673C14.1673 2.78579 13.048 1.6665 11.6673 1.6665H5.83398C4.45327 1.6665 3.33398 2.78579 3.33398 4.1665V12.4998Z" fill="white"/>
<path fill-rule="evenodd" clip-rule="evenodd" d="M17.5007 7.49984V14.1955C17.5007 14.8775 17.222 15.5298 16.7294 16.0014L15.0186 17.6391C14.5533 18.0845 13.934 18.3332 13.2898 18.3332H9.16732C7.78661 18.3332 6.66732 17.2139 6.66732 15.8332V7.49984C6.66732 6.11912 7.78661 4.99984 9.16732 4.99984H15.0007C16.3814 4.99984 17.5007 6.11912 17.5007 7.49984ZM9.16732 16.6665C8.70708 16.6665 8.33399 16.2934 8.33399 15.8332V7.49984C8.33399 7.0396 8.70708 6.6665 9.16732 6.6665H15.0007C15.4609 6.6665 15.834 7.0396 15.834 7.49984V13.3332H14.1673C13.2468 13.3332 12.5007 14.0794 12.5007 14.9998V16.6665H9.16732Z" fill="white"/>
</svg>
