<svg width="20" height="20" viewBox="0 0 20 20" fill="none" xmlns="http://www.w3.org/2000/svg">
<path d="M16.6663 6.70025H6.66633C6.2055 6.70025 5.833 6.32775 5.833 5.86692C5.833 5.40608 6.2055 5.03358 6.66633 5.03358H16.6663C17.1272 5.03358 17.4997 5.40608 17.4997 5.86692C17.4997 6.32775 17.1272 6.70025 16.6663 6.70025ZM16.6663 10.8669H6.66633C6.2055 10.8669 5.833 10.4944 5.833 10.0336C5.833 9.57275 6.2055 9.20025 6.66633 9.20025H16.6663C17.1272 9.20025 17.4997 9.57275 17.4997 10.0336C17.4997 10.4944 17.1272 10.8669 16.6663 10.8669ZM16.6663 15.0336H6.66633C6.2055 15.0336 5.833 14.6611 5.833 14.2002C5.833 13.7394 6.2055 13.3669 6.66633 13.3669H16.6663C17.1272 13.3669 17.4997 13.7394 17.4997 14.2002C17.4997 14.6611 17.1272 15.0336 16.6663 15.0336ZM2.765 6.43167L2.735 6.40167C2.42167 6.08833 2.42167 5.57917 2.735 5.26583L2.765 5.235C3.07833 4.92167 3.5875 4.92167 3.90083 5.235L3.93083 5.26583C4.24417 5.57917 4.24417 6.08833 3.93083 6.40167L3.90083 6.43167C3.5875 6.74583 3.07833 6.74583 2.765 6.43167ZM2.765 10.5983L2.735 10.5683C2.42167 10.255 2.42167 9.74583 2.735 9.4325L2.765 9.40167C3.07833 9.08833 3.5875 9.08833 3.90083 9.40167L3.93083 9.4325C4.24417 9.74583 4.24417 10.255 3.93083 10.5683L3.90083 10.5983C3.5875 10.9125 3.07833 10.9125 2.765 10.5983ZM2.765 14.7984L2.735 14.7684C2.42167 14.4551 2.42167 13.9459 2.735 13.6326L2.765 13.6017C3.07833 13.2884 3.5875 13.2884 3.90083 13.6017L3.93083 13.6326C4.24417 13.9459 4.24417 14.4551 3.93083 14.7684L3.90083 14.7984C3.5875 15.1117 3.07833 15.1117 2.765 14.7984Z" fill="white"/>
</svg>
