<svg width="20" height="20" viewBox="0 0 20 20" fill="none" xmlns="http://www.w3.org/2000/svg">
<path fill-rule="evenodd" clip-rule="evenodd" d="M9.99935 2.9165C6.08734 2.9165 2.91602 6.08782 2.91602 9.99984C2.91602 13.9119 6.08734 17.0832 9.99935 17.0832C13.9114 17.0832 17.0827 13.9119 17.0827 9.99984C17.0827 6.08782 13.9114 2.9165 9.99935 2.9165ZM9.99935 1.6665C5.39698 1.6665 1.66602 5.39746 1.66602 9.99984C1.66602 14.6022 5.39698 18.3332 9.99935 18.3332C14.6017 18.3332 18.3327 14.6022 18.3327 9.99984C18.3327 5.39746 14.6017 1.6665 9.99935 1.6665Z" fill="white"/>
<path d="M12.6473 13.9116C12.5476 13.9692 12.429 13.9848 12.3178 13.955C12.2065 13.9252 12.1116 13.8524 12.054 13.7527L9.99939 10.1939L8.93712 12.0338H10.6687L10.2013 12.8415C10.1601 12.9126 10.1009 12.9717 10.0297 13.0128C9.95851 13.0538 9.87776 13.0754 9.79555 13.0754H8.33572L7.94105 13.759C7.88443 13.8571 7.79117 13.9287 7.68179 13.958C7.57241 13.9873 7.45587 13.9719 7.3578 13.9153L6.82545 13.608L9.99939 8.11056L13.1733 13.608L12.6473 13.9116ZM14.3234 12.9439L13.8499 13.2173L9.99939 6.54808L6.14889 13.2173L5.67536 12.9439C5.61908 12.9115 5.56975 12.8682 5.53018 12.8166C5.49062 12.7651 5.4616 12.7062 5.44478 12.6434C5.42796 12.5807 5.42367 12.5152 5.43215 12.4508C5.44063 12.3863 5.46173 12.3242 5.49422 12.2679L9.59344 5.16789C9.63458 5.09663 9.69375 5.03745 9.76501 4.99631C9.83627 4.95517 9.9171 4.93351 9.99939 4.93351C10.0817 4.93351 10.1625 4.95517 10.2338 4.99631C10.305 5.03745 10.3642 5.09663 10.4053 5.16789L14.5046 12.2679C14.537 12.3242 14.5581 12.3863 14.5666 12.4508C14.5751 12.5152 14.5708 12.5807 14.554 12.6434C14.5372 12.7062 14.5082 12.7651 14.4686 12.8166C14.429 12.8682 14.3797 12.9115 14.3234 12.9439Z" fill="white"/>
</svg>
