<svg width="20" height="20" viewBox="0 0 20 20" fill="none" xmlns="http://www.w3.org/2000/svg">
<path d="M15.9802 11.0273C16.5415 10.347 16.8487 9.49267 16.8493 8.61068V7.13318C16.8544 6.46446 16.6815 5.80644 16.3484 5.22654C16.0154 4.64663 15.5342 4.16571 14.9541 3.83304C14.3739 3.50037 13.7158 3.32792 13.0471 3.33336C12.3784 3.3388 11.7231 3.52194 11.1485 3.86401C10.9612 3.50505 10.7238 3.17453 10.4435 2.88234C9.86041 2.30007 9.11775 1.90378 8.30943 1.74357C7.50111 1.58336 6.66344 1.66643 5.90233 1.98227C5.14122 2.29812 4.49085 2.83255 4.03346 3.518C3.57607 4.20345 3.3322 5.00913 3.33268 5.83318V7.49984C3.33354 8.51696 3.70641 9.49863 4.38102 10.2598C3.58447 10.557 2.89767 11.0904 2.41248 11.7885C1.9273 12.4867 1.66686 13.3163 1.66602 14.1665V16.6665C1.66602 17.1085 1.84161 17.5325 2.15417 17.845C2.46673 18.1576 2.89065 18.3332 3.33268 18.3332H16.7577C17.1753 18.3327 17.5756 18.1667 17.8709 17.8714C18.1662 17.5761 18.3322 17.1758 18.3327 16.7582V14.5332C18.3315 13.7816 18.1073 13.0473 17.6885 12.4232C17.2698 11.7991 16.6752 11.3133 15.9802 11.0273ZM3.33268 16.6665V14.1665C3.33268 13.5035 3.59607 12.8676 4.06492 12.3987C4.53376 11.9299 5.16964 11.6665 5.83268 11.6665C6.0537 11.6665 6.26566 11.5787 6.42194 11.4224C6.57822 11.2662 6.66602 11.0542 6.66602 10.8332V10.3832C6.6663 10.2366 6.62794 10.0926 6.55478 9.96558C6.48163 9.83858 6.37627 9.73312 6.24935 9.65984C5.87004 9.44085 5.55493 9.12606 5.33555 8.74697C5.11617 8.36789 5.00024 7.93783 4.99935 7.49984V5.83318C4.99935 5.17014 5.26274 4.53425 5.73158 4.06541C6.20042 3.59657 6.83631 3.33318 7.49935 3.33318C8.16239 3.33318 8.79827 3.59657 9.26712 4.06541C9.73596 4.53425 9.99935 5.17014 9.99935 5.83318V7.49984C10.0001 8.15746 9.74173 8.7889 9.28018 9.25734C9.12247 9.41196 8.94611 9.54633 8.75518 9.65734C8.6268 9.73009 8.52004 9.83562 8.44581 9.96315C8.37158 10.0907 8.33254 10.2356 8.33268 10.3832V10.8332C8.33268 11.0542 8.42048 11.2662 8.57676 11.4224C8.73304 11.5787 8.945 11.6665 9.16602 11.6665C9.82906 11.6665 10.4649 11.9299 10.9338 12.3987C11.4026 12.8676 11.666 13.5035 11.666 14.1665V16.6665H3.33268ZM16.666 16.6665H13.3327V14.1665C13.3319 13.3169 13.0718 12.4877 12.5871 11.7899C12.1023 11.092 11.4161 10.5588 10.6202 10.2615C11.2948 9.49983 11.6669 8.51732 11.666 7.49984V5.83318C11.666 5.73734 11.6452 5.64484 11.6385 5.55068C12.0478 5.20118 12.5715 5.01477 13.1096 5.02707C13.6476 5.03936 14.1623 5.24951 14.5552 5.61734C14.9564 6.01987 15.182 6.56484 15.1827 7.13318V8.60818C15.1833 8.98162 15.0854 9.34861 14.8989 9.67212C14.7123 9.99562 14.4437 10.2642 14.1202 10.4507C13.9931 10.524 13.8877 10.6296 13.8145 10.7568C13.7414 10.8839 13.7031 11.0281 13.7035 11.1748V11.5748C13.7035 11.7959 13.7913 12.0078 13.9476 12.1641C14.1039 12.3204 14.3158 12.4082 14.5368 12.4082C15.1006 12.4088 15.6412 12.6328 16.0402 13.0311C16.4392 13.4293 16.6643 13.9694 16.666 14.5332V16.6665Z" fill="white"/>
</svg>
