<svg width="20" height="20" viewBox="0 0 20 20" fill="none" xmlns="http://www.w3.org/2000/svg">
<path d="M11.6764 6.67178L3.3431 6.66178C3.12209 6.66178 2.91012 6.57399 2.75384 6.41771C2.59756 6.26143 2.50977 6.04946 2.50977 5.82845C2.50977 5.60744 2.59756 5.39548 2.75384 5.2392C2.91012 5.08291 3.12209 4.99512 3.3431 4.99512L11.6764 5.00512C11.8974 5.00512 12.1094 5.09291 12.2657 5.2492C12.422 5.40548 12.5098 5.61744 12.5098 5.83845C12.5098 6.05946 12.422 6.27143 12.2657 6.42771C12.1094 6.58399 11.8974 6.67178 11.6764 6.67178Z" fill="white"/>
<path d="M11.6667 10.8331L3.33333 10.8239C3.11232 10.8239 2.90036 10.7361 2.74408 10.5798C2.5878 10.4235 2.5 10.2116 2.5 9.99056C2.5 9.76955 2.5878 9.55758 2.74408 9.4013C2.90036 9.24502 3.11232 9.15723 3.33333 9.15723L11.6667 9.16639C11.8877 9.16639 12.0996 9.25419 12.2559 9.41047C12.4122 9.56675 12.5 9.77871 12.5 9.99973C12.5 10.2207 12.4122 10.4327 12.2559 10.589C12.0996 10.7453 11.8877 10.8331 11.6667 10.8331Z" fill="white"/>
<path d="M11.6667 15.0048L3.33333 14.9948C3.11232 14.9948 2.90036 14.907 2.74408 14.7507C2.5878 14.5944 2.5 14.3825 2.5 14.1615C2.5 13.9404 2.5878 13.7285 2.74408 13.5722C2.90036 13.4159 3.11232 13.3281 3.33333 13.3281L11.6667 13.3381C11.8877 13.3381 12.0996 13.4259 12.2559 13.5822C12.4122 13.7385 12.5 13.9504 12.5 14.1715C12.5 14.3925 12.4122 14.6044 12.2559 14.7607C12.0996 14.917 11.8877 15.0048 11.6667 15.0048Z" fill="white"/>
<path d="M17.4869 8.33326C17.4863 8.16845 17.4367 8.00754 17.3446 7.87089C17.2524 7.73424 17.1218 7.62797 16.9693 7.56553C16.8168 7.5031 16.6492 7.48729 16.4877 7.52011C16.3262 7.55293 16.178 7.63291 16.0619 7.74992L14.4036 9.42409C14.248 9.58103 14.1612 9.79332 14.1621 10.0143C14.1631 10.2353 14.2517 10.4468 14.4086 10.6024L16.0828 12.2616C16.2 12.3765 16.3485 12.4542 16.5096 12.485C16.6708 12.5158 16.8375 12.4983 16.9888 12.4348C17.1401 12.3712 17.2693 12.2644 17.3601 12.1278C17.4509 11.9911 17.4994 11.8307 17.4994 11.6666L17.4869 8.33326Z" fill="white"/>
</svg>
