<svg width="20" height="20" viewBox="0 0 20 20" fill="none" xmlns="http://www.w3.org/2000/svg">
<path d="M7.91602 9.5835C8.60637 9.5835 9.16602 8.8373 9.16602 7.91683C9.16602 6.99635 8.60637 6.25016 7.91602 6.25016C7.22566 6.25016 6.66602 6.99635 6.66602 7.91683C6.66602 8.8373 7.22566 9.5835 7.91602 9.5835Z" fill="white"/>
<path fill-rule="evenodd" clip-rule="evenodd" d="M4.16602 3.3335C2.7853 3.3335 1.66602 4.45278 1.66602 5.8335V10.0002C1.66602 11.3809 2.7853 12.5002 4.16602 12.5002H11.666C13.0467 12.5002 14.166 11.3809 14.166 10.0002V5.8335C14.166 4.45278 13.0467 3.3335 11.666 3.3335H4.16602ZM3.33268 5.8335C3.33268 5.37326 3.70578 5.00016 4.16602 5.00016H11.666C12.1263 5.00016 12.4993 5.37326 12.4993 5.8335V10.0002C12.4993 10.4604 12.1263 10.8335 11.666 10.8335H4.16602C3.70578 10.8335 3.33268 10.4604 3.33268 10.0002V5.8335Z" fill="white"/>
<path d="M15.8327 7.50016H14.9993V9.16683H15.8327C16.2929 9.16683 16.666 9.53993 16.666 10.0002V14.1668C16.666 14.6271 16.2929 15.0002 15.8327 15.0002H8.33268C7.87245 15.0002 7.49935 14.6271 7.49935 14.1668V13.3335H5.83268V14.1668C5.83268 15.5475 6.95197 16.6668 8.33268 16.6668H15.8327C17.2134 16.6668 18.3327 15.5475 18.3327 14.1668V10.0002C18.3327 8.61945 17.2134 7.50016 15.8327 7.50016Z" fill="white"/>
</svg>
