<svg width="20" height="20" viewBox="0 0 20 20" fill="none" xmlns="http://www.w3.org/2000/svg">
<path d="M12.2304 8.55221C12.5697 8.8632 12.5926 9.39034 12.2816 9.72961L9.98995 12.2296C9.8321 12.4018 9.60924 12.4998 9.37565 12.4998C9.14206 12.4998 8.9192 12.4018 8.76136 12.2296L7.71969 11.0932C7.4087 10.754 7.43161 10.2268 7.77088 9.91584C8.11015 9.60485 8.63729 9.62777 8.94828 9.96704L9.37565 10.4333L11.053 8.6034C11.364 8.26413 11.8912 8.24121 12.2304 8.55221Z" fill="white"/>
<path fill-rule="evenodd" clip-rule="evenodd" d="M12.2777 2.49984H14.1673C15.548 2.49984 16.6673 3.61913 16.6673 4.99984V15.8332C16.6673 17.2139 15.548 18.3332 14.1673 18.3332H5.83398C4.45327 18.3332 3.33398 17.2139 3.33398 15.8332V4.99984C3.33398 3.61913 4.45327 2.49984 5.83398 2.49984H7.72362C8.0118 2.00167 8.55042 1.6665 9.16732 1.6665H10.834C11.4509 1.6665 11.9895 2.00167 12.2777 2.49984ZM7.50065 4.1665H5.83398C5.37375 4.1665 5.00065 4.5396 5.00065 4.99984V15.8332C5.00065 16.2934 5.37375 16.6665 5.83398 16.6665H14.1673C14.6276 16.6665 15.0007 16.2934 15.0007 15.8332V4.99984C15.0007 4.5396 14.6276 4.1665 14.1673 4.1665H12.5007V4.99984H7.50065V4.1665Z" fill="white"/>
</svg>
