<svg width="20" height="20" viewBox="0 0 20 20" fill="none" xmlns="http://www.w3.org/2000/svg">
<path d="M16.5523 6.6665C17.994 6.6665 19.1673 7.839 19.1673 9.2815V15.7182C19.1673 17.1598 17.994 18.3332 16.5523 18.3332H11.7823C11.7557 18.3332 11.7323 18.3257 11.7057 18.3248C11.6923 18.3257 11.6807 18.3332 11.6673 18.3332H2.50065C1.58148 18.3332 0.833984 17.5857 0.833984 16.6665V14.1665C0.833984 12.379 1.96482 10.8507 3.54982 10.2607C2.88482 9.50984 2.50065 8.52984 2.50065 7.49984V5.83317C2.50065 4.729 2.93232 3.684 3.71565 2.88984C4.51815 2.09817 5.56398 1.6665 6.66732 1.6665C7.77148 1.6665 8.81648 2.09817 9.61065 2.8815C10.4023 3.684 10.834 4.729 10.834 5.83317V6.85067C11.129 6.73567 11.4473 6.6665 11.7823 6.6665H16.5523ZM17.5007 15.7182V9.2815C17.5007 8.75817 17.0748 8.33317 16.5523 8.33317H11.7823C11.2598 8.33317 10.834 8.75817 10.834 9.2815V15.7182C10.834 16.2407 11.2598 16.6665 11.7823 16.6665H16.5523C17.0748 16.6665 17.5007 16.2407 17.5007 15.7182ZM2.50065 14.1665V16.6665H9.35148C9.23648 16.3715 9.16732 16.0532 9.16732 15.7182V11.8307C8.89815 11.7332 8.62232 11.6665 8.33398 11.6665C7.87398 11.6665 7.50065 11.2932 7.50065 10.8332V10.3832C7.50065 10.0823 7.66232 9.80567 7.92315 9.65817C8.09815 9.559 8.27398 9.424 8.44815 9.25734C8.90648 8.79234 9.16732 8.16317 9.16732 7.49984V5.83317C9.16732 5.16984 8.90648 4.54067 8.43232 4.05984C7.48732 3.12817 5.85565 3.119 4.89482 4.06817C4.42815 4.54067 4.16732 5.17067 4.16732 5.83317V7.49984C4.16732 8.38984 4.64565 9.21734 5.41648 9.66067C5.67482 9.809 5.83398 10.0848 5.83398 10.3832V10.8332C5.83398 11.2932 5.46065 11.6665 5.00065 11.6665C3.62232 11.6665 2.50065 12.7873 2.50065 14.1665ZM15.834 9.16625H12.5007C12.0407 9.16625 11.6673 9.53959 11.6673 9.99959C11.6673 10.4596 12.0407 10.8329 12.5007 10.8329H15.834C16.294 10.8329 16.6673 10.4596 16.6673 9.99959C16.6673 9.53959 16.294 9.16625 15.834 9.16625ZM13.0691 11.8685C12.7549 11.5552 12.2466 11.5552 11.9324 11.8685L11.9032 11.8985C11.5891 12.2118 11.5891 12.721 11.9032 13.0343L11.9324 13.0643C12.2466 13.3785 12.7549 13.3785 13.0691 13.0643L13.0982 13.0343C13.4124 12.721 13.4124 12.2118 13.0982 11.8985L13.0691 11.8685ZM16.4024 11.8685C16.0882 11.5552 15.5799 11.5552 15.2657 11.8685L15.2366 11.8985C14.9224 12.2118 14.9224 12.721 15.2366 13.0343L15.2657 13.0643C15.5799 13.3785 16.0882 13.3785 16.4024 13.0643L16.4316 13.0343C16.7457 12.721 16.7457 12.2118 16.4316 11.8985L16.4024 11.8685ZM13.0691 14.3685C12.7549 14.0552 12.2466 14.0552 11.9324 14.3685L11.9032 14.3985C11.5891 14.7118 11.5891 15.221 11.9032 15.5343L11.9324 15.5643C12.2466 15.8785 12.7549 15.8785 13.0691 15.5643L13.0982 15.5343C13.4124 15.221 13.4124 14.7118 13.0982 14.3985L13.0691 14.3685ZM16.4024 14.3685C16.0882 14.0552 15.5799 14.0552 15.2657 14.3685L15.2366 14.3985C14.9224 14.7118 14.9224 15.221 15.2366 15.5343L15.2657 15.5643C15.5799 15.8785 16.0882 15.8785 16.4024 15.5643L16.4316 15.5343C16.7457 15.221 16.7457 14.7118 16.4316 14.3985L16.4024 14.3685Z" fill="white"/>
</svg>
