<svg width="24" height="24" viewBox="0 0 24 24" fill="none" xmlns="http://www.w3.org/2000/svg">
<path fill-rule="evenodd" clip-rule="evenodd" d="M3 2C3.55228 2 4 2.44772 4 3H3H2C2 2.44772 2.44772 2 3 2ZM21 21C21 22 20.9999 22 20.9998 22H20.9985H20.9973H20.9957H20.9939H20.9917H20.9891H20.9863H20.983H20.9795H20.9757H20.9715H20.9669H20.9621H20.9569H20.9515H20.9456H20.9395H20.9331H20.9263H20.9192H20.9118H20.9041H20.8961H20.8878H20.8791H20.8702H20.8609H20.8513H20.8415H20.8313H20.8208H20.8101H20.799H20.7876H20.7759H20.764H20.7517H20.7392H20.7263H20.7132H20.6998H20.6861H20.6721H20.6578H20.6432H20.6284H20.6133H20.5979H20.5822H20.5662H20.55H20.5335H20.5167H20.4996H20.4823H20.4647H20.4468H20.4287H20.4103H20.3916H20.3727H20.3535H20.3341H20.3144H20.2944H20.2742H20.2537H20.233H20.212H20.1908H20.1693H20.1475H20.1256H20.1033H20.0809H20.0581H20.0352H20.012H19.9886H19.9649H19.941H19.9168H19.8924H19.8678H19.843H19.8179H19.7926H19.7671H19.7413H19.7153H19.6891H19.6627H19.636H19.6091H19.582H19.5547H19.5272H19.4995H19.4715H19.4433H19.4149H19.3864H19.3576H19.3286H19.2993H19.2699H19.2403H19.2105H19.1805H19.1502H19.1198H19.0892H19.0584H19.0274H18.9962H18.9648H18.9332H18.9014H18.8695H18.8373H18.805H18.7725H18.7398H18.7069H18.6739H18.6406H18.6072H18.5736H18.5399H18.5059H18.4718H18.4375H18.4031H18.3685H18.3337H18.2987H18.2636H18.2283H18.1929H18.1573H18.1215H18.0856H18.0495H18.0133H17.9769H17.9404H17.9037H17.8668H17.8299H17.7927H17.7554H17.718H17.6804H17.6427H17.6049H17.5669H17.5287H17.4905H17.4521H17.4135H17.3749H17.3361H17.2971H17.2581H17.2189H17.1795H17.1401H17.1005H17.0608H17.021H16.9811H16.941H16.9009H16.8606H16.8202H16.7796H16.739H16.6983H16.6574H16.6165H16.5754H16.5342H16.4929H16.4516H16.4101H16.3685H16.3268H16.285H16.2431H16.2012H16.1591H16.1169H16.0747H16.0323H15.9899H15.9474H15.9048H15.8621H15.8193H15.7764H15.7335H15.6905H15.6474H15.6042H15.5609H15.5176H15.4742H15.4307H15.3872H15.3436H15.2999H15.2561H15.2123H15.1684H15.1245H15.0805H15.0364H14.9923H14.9481H14.9038H14.8595H14.8152H14.7708H14.7263H14.6818H14.6373H14.5926H14.548H14.5033H14.4586H14.4138H14.369H14.3241H14.2792H14.2342H14.1893H14.1443H14.0992H14.0541H14.009H13.9639H13.9187H13.8735H13.8283H13.7831H13.7378H13.6925H13.6472H13.6019H13.5565H13.5112H13.4658H13.4204H13.375H13.3296H13.2842H13.2387H13.1933H13.1478H13.1024H13.0569H13.0115H12.966H12.9205H12.8751H12.8296H12.7842H12.7387H12.6933H12.6479H12.6024H12.557H12.5116H12.4662H12.4209H12.3755H12.3302H12.2848H12.2395H12.1943H12.149H12.1038H12.0586H12.0134H11.9682H11.9231H11.878H11.8329H11.7879H11.7429H11.6979H11.653H11.6081H11.5633H11.5185H11.4737H11.429H11.3843H11.3396H11.2951H11.2505H11.206H11.1616H11.1172H11.0729H11.0286H10.9844H10.9402H10.8961H10.852H10.808H10.7641H10.7203H10.6765H10.6327H10.5891H10.5455H10.502H10.4585H10.4151H10.3718H10.3286H10.2854H10.2424H10.1994H10.1565H10.1136H10.0709H10.0282H9.98563H9.94313H9.90073H9.85842H9.81619H9.77406H9.73202H9.69008H9.64824H9.60649H9.56484H9.52329H9.48184H9.44049H9.39925H9.35811H9.31708H9.27616H9.23535H9.19464H9.15405H9.11357H9.07321H9.03296H8.99283H8.95282H8.91292H8.87315H8.8335H8.79397H8.75457H8.71529H8.67614H8.63712H8.59823H8.55947H8.52084H8.48235H8.44399H8.40577H8.36768H8.32974H8.29193H8.25427H8.21675H8.17937H8.14214H8.10505H8.06812H8.03133H7.99469H7.95821H7.92188H7.8857H7.84968H7.81381H7.77811H7.74256H7.70717H7.67195H7.63689H7.602H7.56727H7.53271H7.49831H7.46409H7.43004H7.39616H7.36246H7.32893H7.29558H7.2624H7.2294H7.19659H7.16396H7.13151H7.09924H7.06716H7.03526H7.00356H6.97204H6.94072H6.90958H6.87865H6.8479H6.81735H6.787H6.75685H6.72689H6.69714H6.66759H6.63824H6.6091H6.58017H6.55144H6.52292H6.49462H6.46652H6.43864H6.41097H6.38351H6.35628H6.32926H6.30246H6.27588H6.24952H6.22339H6.19748H6.17179H6.14634H6.12111H6.09611H6.07134H6.04681H6.02251H5.99844H5.97461H5.95102H5.92766H5.90455H5.88167H5.85904H5.83666H5.81452H5.79262H5.77097H5.74958H5.72843H5.70753H5.68689H5.6665H5.64637H5.6265H5.60688H5.58752H5.56842H5.54959H5.53102H5.51271H5.49467H5.47689H5.45939H5.44215H5.42519H5.4085H5.39208H5.37594H5.36007H5.34448H5.32917H5.31414H5.29939H5.28493H5.27075H5.25685H5.24324H5.22992H5.21689H5.20415H5.1917H5.17955H5.16768H5.15612H5.14485H5.13388H5.12321H5.11284H5.10277H5.09301H5.08355H5.0744H5.06555H5.05702H5.04879H5.04088H5.03328H5.02599H5.01901H5.01236H5.00602H5C4.17477 22 3.43324 21.5975 2.91789 21.0821C2.40255 20.5668 2 19.8252 2 19V8.5625V4.58594V3.4209V3.10828V3.02745V3.00691V3.00173V3C2 2.99993 2 3 3 3C4 3 4 2.99993 4 3V3.00173V3.00691V3.02745V3.10828V3.4209V4.58594V8.5625V19C4 19.1748 4.09745 19.4332 4.33211 19.6679C4.56676 19.9025 4.82523 20 5 20H5.00602H5.01236H5.01901H5.02599H5.03328H5.04088H5.04879H5.05702H5.06555H5.0744H5.08355H5.09301H5.10277H5.11284H5.12321H5.13388H5.14485H5.15612H5.16768H5.17955H5.1917H5.20415H5.21689H5.22992H5.24324H5.25685H5.27075H5.28493H5.29939H5.31414H5.32917H5.34448H5.36007H5.37594H5.39208H5.4085H5.42519H5.44215H5.45939H5.47689H5.49467H5.51271H5.53102H5.54959H5.56842H5.58752H5.60688H5.6265H5.64637H5.6665H5.68689H5.70753H5.72843H5.74958H5.77097H5.79262H5.81452H5.83666H5.85904H5.88167H5.90455H5.92766H5.95102H5.97461H5.99844H6.02251H6.04681H6.07134H6.09611H6.12111H6.14634H6.17179H6.19748H6.22339H6.24952H6.27588H6.30246H6.32926H6.35628H6.38351H6.41097H6.43864H6.46652H6.49462H6.52292H6.55144H6.58017H6.6091H6.63824H6.66759H6.69714H6.72689H6.75685H6.787H6.81735H6.8479H6.87865H6.90958H6.94072H6.97204H7.00356H7.03526H7.06716H7.09924H7.13151H7.16396H7.19659H7.2294H7.2624H7.29558H7.32893H7.36246H7.39616H7.43004H7.46409H7.49831H7.53271H7.56727H7.602H7.63689H7.67195H7.70717H7.74256H7.77811H7.81381H7.84968H7.8857H7.92188H7.95821H7.99469H8.03133H8.06812H8.10505H8.14214H8.17937H8.21675H8.25427H8.29193H8.32974H8.36768H8.40577H8.44399H8.48235H8.52084H8.55947H8.59823H8.63712H8.67614H8.71529H8.75457H8.79397H8.8335H8.87315H8.91292H8.95282H8.99283H9.03296H9.07321H9.11357H9.15405H9.19464H9.23535H9.27616H9.31708H9.35811H9.39925H9.44049H9.48184H9.52329H9.56484H9.60649H9.64824H9.69008H9.73202H9.77406H9.81619H9.85842H9.90073H9.94313H9.98563H10.0282H10.0709H10.1136H10.1565H10.1994H10.2424H10.2854H10.3286H10.3718H10.4151H10.4585H10.502H10.5455H10.5891H10.6327H10.6765H10.7203H10.7641H10.808H10.852H10.8961H10.9402H10.9844H11.0286H11.0729H11.1172H11.1616H11.206H11.2505H11.2951H11.3396H11.3843H11.429H11.4737H11.5185H11.5633H11.6081H11.653H11.6979H11.7429H11.7879H11.8329H11.878H11.9231H11.9682H12.0134H12.0586H12.1038H12.149H12.1943H12.2395H12.2848H12.3302H12.3755H12.4209H12.4662H12.5116H12.557H12.6024H12.6479H12.6933H12.7387H12.7842H12.8296H12.8751H12.9205H12.966H13.0115H13.0569H13.1024H13.1478H13.1933H13.2387H13.2842H13.3296H13.375H13.4204H13.4658H13.5112H13.5565H13.6019H13.6472H13.6925H13.7378H13.7831H13.8283H13.8735H13.9187H13.9639H14.009H14.0541H14.0992H14.1443H14.1893H14.2342H14.2792H14.3241H14.369H14.4138H14.4586H14.5033H14.548H14.5926H14.6373H14.6818H14.7263H14.7708H14.8152H14.8595H14.9038H14.9481H14.9923H15.0364H15.0805H15.1245H15.1684H15.2123H15.2561H15.2999H15.3436H15.3872H15.4307H15.4742H15.5176H15.5609H15.6042H15.6474H15.6905H15.7335H15.7764H15.8193H15.8621H15.9048H15.9474H15.9899H16.0323H16.0747H16.1169H16.1591H16.2012H16.2431H16.285H16.3268H16.3685H16.4101H16.4516H16.4929H16.5342H16.5754H16.6165H16.6574H16.6983H16.739H16.7796H16.8202H16.8606H16.9009H16.941H16.9811H17.021H17.0608H17.1005H17.1401H17.1795H17.2189H17.2581H17.2971H17.3361H17.3749H17.4135H17.4521H17.4905H17.5287H17.5669H17.6049H17.6427H17.6804H17.718H17.7554H17.7927H17.8299H17.8668H17.9037H17.9404H17.9769H18.0133H18.0495H18.0856H18.1215H18.1573H18.1929H18.2283H18.2636H18.2987H18.3337H18.3685H18.4031H18.4375H18.4718H18.5059H18.5399H18.5736H18.6072H18.6406H18.6739H18.7069H18.7398H18.7725H18.805H18.8373H18.8695H18.9014H18.9332H18.9648H18.9962H19.0274H19.0584H19.0892H19.1198H19.1502H19.1805H19.2105H19.2403H19.2699H19.2993H19.3286H19.3576H19.3864H19.4149H19.4433H19.4715H19.4995H19.5272H19.5547H19.582H19.6091H19.636H19.6627H19.6891H19.7153H19.7413H19.7671H19.7926H19.8179H19.843H19.8678H19.8924H19.9168H19.941H19.9649H19.9886H20.012H20.0352H20.0581H20.0809H20.1033H20.1256H20.1475H20.1693H20.1908H20.212H20.233H20.2537H20.2742H20.2944H20.3144H20.3341H20.3535H20.3727H20.3916H20.4103H20.4287H20.4468H20.4647H20.4823H20.4996H20.5167H20.5335H20.55H20.5662H20.5822H20.5979H20.6133H20.6284H20.6432H20.6578H20.6721H20.6861H20.6998H20.7132H20.7263H20.7392H20.7517H20.764H20.7759H20.7876H20.799H20.8101H20.8208H20.8313H20.8415H20.8513H20.8609H20.8702H20.8791H20.8878H20.8961H20.9041H20.9118H20.9192H20.9263H20.9331H20.9395H20.9456H20.9515H20.9569H20.9621H20.9669H20.9715H20.9757H20.9795H20.983H20.9863H20.9891H20.9917H20.9939H20.9957H20.9973H20.9985H20.9998C20.9999 20 21 20 21 21ZM21 21L20.9998 20C21.5521 20 22 20.4477 22 21C22 21.5523 21.5521 22 20.9998 22L21 21ZM19.5002 7C20.8809 7 22.0002 5.88071 22.0002 4.5C22.0002 3.11929 20.8809 2 19.5002 2C18.1195 2 17.0002 3.11929 17.0002 4.5C17.0002 4.99672 17.1451 5.45961 17.3948 5.84872C17.0299 6.34231 16.6367 6.87337 16.2424 7.40436C15.5004 8.40377 14.7565 9.40063 14.1913 10.1467C14.1192 10.242 14.0501 10.3329 13.9845 10.419C13.6477 9.99068 13.2374 9.46157 12.822 8.92578L12.7925 8.88772C12.3089 8.26411 11.8205 7.63443 11.445 7.16063C11.2581 6.92477 11.0933 6.72015 10.9687 6.57191C10.908 6.49969 10.8469 6.42895 10.7931 6.37165C10.7684 6.34542 10.7285 6.30398 10.6815 6.26279C10.6599 6.24386 10.6142 6.20489 10.5525 6.16491C10.5216 6.14484 10.4674 6.11195 10.3957 6.08138C10.3347 6.0554 10.1916 6.00049 10.0002 6.00049C9.73456 6.00049 9.54745 6.10564 9.48823 6.1406C9.40936 6.18715 9.35339 6.23476 9.32533 6.25983C9.26768 6.31133 9.22665 6.35968 9.20888 6.38104C9.16845 6.42964 9.13363 6.47897 9.11076 6.51219C9.06085 6.58472 9.0022 6.67715 8.94091 6.77658C8.81579 6.9796 8.64877 7.26229 8.45726 7.59225C8.07285 8.25456 7.57409 9.13435 7.08143 10.0103C6.58828 10.8871 6.09927 11.7635 5.73368 12.4205C5.55085 12.7491 5.3988 13.0229 5.29244 13.2146L5.16901 13.4372L5.13648 13.496L5.12811 13.5111L5.12598 13.5149L5.12544 13.5159C5.12541 13.5159 5.12525 13.5162 5.86076 13.9233L5.12544 13.5159C4.858 13.9992 5.03273 14.608 5.51594 14.8754C5.99915 15.1429 6.60768 14.9679 6.87512 14.4847L6.8758 14.4835L6.87787 14.4798L6.88613 14.4648L6.91843 14.4065L7.04136 14.1848C7.14736 13.9937 7.29898 13.7207 7.48132 13.393C7.84608 12.7375 8.3335 11.8639 8.82463 10.9907C9.28787 10.1671 9.75268 9.3469 10.1205 8.71098C10.4453 9.12471 10.8272 9.61708 11.2119 10.1133L11.2459 10.1571C11.7182 10.7661 12.1921 11.3773 12.5578 11.8397C12.7443 12.0754 12.9083 12.2796 13.032 12.4274C13.0923 12.4994 13.1526 12.5696 13.2053 12.6262C13.2295 12.6521 13.2683 12.6928 13.3139 12.7333C13.3347 12.7518 13.3793 12.7905 13.4396 12.8305C13.4697 12.8504 13.5234 12.8839 13.595 12.9153C13.6542 12.9413 13.8017 13.0005 14.0002 13.0005C14.278 13.0005 14.4745 12.8829 14.5102 12.8615L14.5132 12.8597C14.5783 12.8212 14.6255 12.7833 14.6474 12.7652C14.6941 12.7266 14.7298 12.6903 14.7464 12.6731C14.7844 12.634 14.8212 12.5915 14.8502 12.5573C14.9118 12.4846 14.9901 12.3873 15.0781 12.2755C15.2564 12.0491 15.5006 11.7305 15.7856 11.3543C16.3567 10.6003 17.1053 9.59721 17.8482 8.59662C18.2638 8.03685 18.6782 7.47717 19.0595 6.96129C19.2026 6.98673 19.3498 7 19.5002 7ZM22.0001 13.5C22.0001 14.6046 21.1047 15.5 20.0001 15.5C19.7047 15.5 19.4242 15.4359 19.1718 15.3209C18.8436 15.5547 18.4842 15.8103 18.1234 16.0659C17.5052 16.504 16.8802 16.9441 16.401 17.2756C16.1623 17.4407 15.9547 17.5823 15.8005 17.6841C15.7248 17.7341 15.6533 17.7803 15.5939 17.8162C15.566 17.8331 15.5272 17.856 15.4856 17.8776C15.4661 17.8877 15.4294 17.9062 15.3835 17.9248C15.3787 17.927 15.2141 18 15.0001 18C14.9082 18 14.8334 17.9866 14.8197 17.9841L14.8182 17.9839C14.7917 17.9792 14.769 17.9742 14.7546 17.971C14.7248 17.9642 14.6947 17.9565 14.6694 17.9498C14.6169 17.9359 14.5511 17.9173 14.4779 17.8961C14.33 17.8534 14.1292 17.7933 13.8961 17.7227C13.4396 17.5846 12.845 17.4017 12.2502 17.2187L12.2082 17.2058C11.5978 17.0181 10.9906 16.8314 10.5282 16.6916C10.3754 16.6454 10.2401 16.6049 10.1267 16.5714C10.0456 16.6201 9.95144 16.6775 9.84613 16.7423C9.47143 16.9729 8.98016 17.2823 8.48901 17.5942C7.99872 17.9055 7.51197 18.2171 7.14757 18.451C6.96544 18.5679 6.814 18.6653 6.70815 18.7334L6.58545 18.8124L6.55324 18.8332L6.54503 18.8385L6.54298 18.8398C6.07892 19.1393 5.45932 19.0063 5.15987 18.5422C4.86042 18.0781 4.99386 17.4592 5.45792 17.1598L5.46083 17.1579L5.46924 17.1524L5.50187 17.1314L5.62552 17.0518C5.73204 16.9832 5.88426 16.8853 6.0673 16.7678C6.43325 16.5329 6.92293 16.2195 7.41692 15.9058C7.91005 15.5927 8.41093 15.2771 8.79801 15.0389C8.99052 14.9205 9.16115 14.8173 9.29077 14.7422C9.35408 14.7055 9.41789 14.6695 9.47385 14.6405C9.50026 14.6268 9.53941 14.607 9.58309 14.5883C9.60423 14.5792 9.64137 14.5639 9.68753 14.5491L9.6898 14.5484C9.71699 14.5397 9.84038 14.5 10.0001 14.5C10.0899 14.5 10.1628 14.5127 10.1774 14.5153L10.179 14.5156C10.2058 14.5202 10.2288 14.5251 10.2435 14.5284C10.2738 14.5352 10.3044 14.543 10.3301 14.5498C10.3833 14.5637 10.4497 14.5824 10.5232 14.6036C10.6718 14.6465 10.8733 14.7066 11.1068 14.7771C11.5749 14.9186 12.1873 15.1069 12.7961 15.2942L12.8347 15.306C13.4321 15.4898 14.0233 15.6716 14.4755 15.8085C14.6132 15.8502 14.7366 15.8873 14.8426 15.9188C14.9596 15.8398 15.1015 15.7426 15.2633 15.6307C15.7329 15.3059 16.3504 14.871 16.9671 14.4341C17.3256 14.1801 17.6829 13.926 18.0094 13.6934C18.0032 13.6298 18.0001 13.5653 18.0001 13.5C18.0001 12.3954 18.8955 11.5 20.0001 11.5C21.1047 11.5 22.0001 12.3954 22.0001 13.5Z" fill="#21262A"/>
</svg>
