<svg width="148" height="29" viewBox="0 0 148 29" fill="none" xmlns="http://www.w3.org/2000/svg">
<path d="M58.5752 12.1998C55.104 12.1998 52.5847 14.6352 52.5847 17.9907C52.5847 21.4629 55.16 23.9 58.5752 23.9C61.9901 23.9 64.5654 21.4396 64.5654 17.9907C64.5654 14.6352 62.0461 12.1998 58.5752 12.1998ZM58.5752 21.2639C56.5859 21.2639 55.6796 19.5671 55.6796 17.9907C55.6796 16.4355 56.5859 14.7617 58.5752 14.7617C60.5646 14.7617 61.4706 16.4355 61.4706 17.9907C61.4706 19.5671 60.5646 21.2639 58.5752 21.2639ZM121.465 12.1731C117.782 12.1731 115.478 14.6876 115.478 18.1016C115.478 21.552 118.051 23.8702 121.594 23.8702C123.656 23.8702 125.271 23.0554 126.349 21.5882L124.15 20.1275C123.531 20.9999 122.744 21.3609 121.571 21.3609C119.956 21.3609 118.796 20.2255 118.592 18.9557H126.781C126.781 18.9557 126.813 18.5707 126.813 18.1683C126.813 14.4868 124.762 12.1731 121.465 12.1731ZM118.592 16.826C118.622 15.3785 119.954 14.4305 121.376 14.4305C122.99 14.4305 123.743 15.6173 123.743 16.826H118.592ZM147.305 14.9499V12.5108H144.639V9.42285H141.633V12.5108H139.767V14.9499H141.633V19.8123C141.633 21.5162 142.048 23.808 145.327 23.808C145.967 23.808 146.776 23.6778 147.257 23.4946L147.183 21.1072C146.878 21.2085 146.408 21.3346 145.846 21.3346C144.955 21.3346 144.639 20.7093 144.639 19.7899V14.9499H147.305ZM37.2493 12.1998C35.3536 12.1998 34.186 13.4369 33.755 13.9135H33.6874V12.5108H30.748V28.9997H33.7987V22.2311H33.844C34.6226 23.1125 35.9657 23.8702 37.3957 23.8702C40.5449 23.8702 42.7566 21.3975 42.7566 17.9907C42.7566 14.6352 40.3598 12.1998 37.2493 12.1998ZM36.6494 21.2639C34.8093 21.2639 33.7099 19.6221 33.7099 18.035C33.7099 16.4608 34.8336 14.7617 36.6494 14.7617C38.6236 14.7617 39.6083 16.4355 39.6083 17.9907C39.6083 19.6171 38.5358 21.2639 36.6494 21.2639ZM47.6826 14.2153H47.6375V12.5108H44.6983V23.5592H47.7489V17.6572C47.7489 17.6305 47.8846 14.9587 50.5271 14.9587C50.746 14.9587 51.1241 14.9905 51.4745 15.0783V12.2912C51.2605 12.2377 50.7847 12.1998 50.5996 12.1998C49.3999 12.1998 48.3749 13.1839 47.6826 14.2153ZM109.731 12.1998C108.134 12.1998 106.962 13.3571 106.357 14.1916H106.311V12.5108H103.394V23.5592H106.445V17.5017C106.445 16.2034 107.233 14.8061 108.81 14.8061C110.289 14.8061 110.687 16.1332 110.687 17.4574V23.5592H113.737V16.702C113.737 14.6251 112.775 12.1998 109.731 12.1998ZM71.9804 21.2639C70.1232 21.2639 69.1867 19.6043 69.1867 17.9996C69.1867 16.3952 70.2028 14.8061 71.8913 14.8061C72.6821 14.8061 73.6818 15.2027 74.0742 15.7604L76.0403 13.8013C75.0886 12.7984 73.5716 12.1998 71.8913 12.1998C68.4718 12.1998 65.9899 14.6539 65.9899 18.035C65.9899 21.4707 68.444 23.8702 71.958 23.8702C73.6302 23.8702 75.1753 23.3809 76.0914 22.3958L74.179 20.3434C73.7372 20.8813 72.8113 21.2639 71.9804 21.2639ZM97.1193 12.1998C95.5219 12.1998 94.3505 13.3571 93.7447 14.1916H93.6995V12.5108H90.7823V23.5592H93.8329V17.5017C93.8329 16.2034 94.6208 14.8061 96.198 14.8061C97.6775 14.8061 98.0753 16.1332 98.0753 17.4574V23.5592H101.126V16.702C101.126 14.6251 100.163 12.1998 97.1193 12.1998ZM134.311 21.2639C132.454 21.2639 131.518 19.6043 131.518 17.9996C131.518 16.3952 132.534 14.8061 134.222 14.8061C135.013 14.8061 136.013 15.2027 136.405 15.7604L138.371 13.8013C137.419 12.7984 135.902 12.1998 134.222 12.1998C130.803 12.1998 128.321 14.6539 128.321 18.035C128.321 21.4707 130.775 23.8702 134.289 23.8702C135.961 23.8702 137.506 23.3809 138.422 22.3958L136.51 20.3434C136.068 20.8813 135.142 21.2639 134.311 21.2639ZM83.0514 12.1998C79.5802 12.1998 77.0609 14.6352 77.0609 17.9907C77.0609 21.4629 79.6362 23.9 83.0514 23.9C86.4662 23.9 89.0415 21.4396 89.0415 17.9907C89.0415 14.6352 86.5222 12.1998 83.0514 12.1998ZM83.0514 21.2639C81.062 21.2639 80.1558 19.5671 80.1558 17.9907C80.1558 16.4355 81.062 14.7617 83.0514 14.7617C85.0408 14.7617 85.9466 16.4355 85.9466 17.9907C85.9466 19.5671 85.0408 21.2639 83.0514 21.2639Z" fill="white"/>
<path d="M45.327 6.94839C45.327 8.39346 46.4835 9.45013 47.9513 9.45013C49.4192 9.45013 50.5786 8.39632 50.5786 6.94839V3.63271H49.1565V6.77985C49.1565 7.55951 48.6367 8.08213 47.9485 8.08213C47.2631 8.08213 46.7405 7.55951 46.7405 6.77985V3.63271H45.3184L45.327 6.94839Z" fill="white"/>
<path d="M54.3825 4.9607H56.0787V9.33018H57.5009V4.9607H59.1972V3.62988H54.3825V4.9607Z" fill="white"/>
<path d="M53.463 3.62988H52.0409V9.33018H53.463V3.62988Z" fill="white"/>
<path d="M41.2776 4.9607V9.33018H42.6997V4.9607H44.396V3.62988H39.5785V4.9607H41.2776Z" fill="white"/>
<path d="M32.1194 3.62988H30.6973V9.33018H32.1194V3.62988Z" fill="white"/>
<path d="M38.8331 6.01735C38.8331 4.57228 37.6766 3.51562 36.2059 3.51562C34.738 3.51562 33.5786 4.56943 33.5786 6.01735V9.33302H35.0008V6.18589C35.0008 5.40624 35.5234 4.88361 36.2087 4.88361C36.8941 4.88361 37.4167 5.40624 37.4167 6.18589V9.33302H38.8388L38.8331 6.01735Z" fill="white"/>
<path d="M12.8507 25.7028C19.9479 25.7028 25.7013 19.9491 25.7013 12.8514C25.7013 5.75378 19.9479 0 12.8507 0C5.75344 0 0 5.75378 0 12.8514C0 19.9491 5.75344 25.7028 12.8507 25.7028Z" fill="#0077C5"/>
<path fill-rule="evenodd" clip-rule="evenodd" d="M25.7013 12.8514C25.7013 19.9491 19.9479 25.7028 12.8507 25.7028C5.75344 25.7028 0 19.9491 0 12.8514C0 5.75378 5.75344 0 12.8507 0C19.9479 0 25.7013 5.75378 25.7013 12.8514ZM16.4151 5.8546C16.8194 5.85467 17.1835 6.0981 17.3384 6.47176C17.4932 6.84508 17.4076 7.27518 17.1217 7.5611L6.65074 18.0327L5.94407 17.326C5.55363 16.9356 5.55363 16.3028 5.94407 15.9122L14.0018 7.85378H7.99829C7.44628 7.85371 6.99868 7.40626 6.99879 6.85422V6.85307L6.99868 5.8546H16.4151ZM18.1844 8.58008C18.4703 8.2942 18.9003 8.20859 19.2737 8.36337C19.6473 8.51827 19.8907 8.8824 19.8908 9.28679V18.7037L18.8924 18.7036H18.8913C18.3392 18.7037 17.8918 18.2561 17.8918 17.7041V11.7002L9.83371 19.7584C9.44327 20.1489 8.81051 20.1489 8.42008 19.7584L7.7134 19.0517L18.1844 8.58008Z" fill="white"/>
</svg>
