<svg width="60" height="60" viewBox="0 0 60 60" fill="none" xmlns="http://www.w3.org/2000/svg">
<rect width="60" height="60" rx="30" fill="#00254A"/>
<path d="M45.9892 22.2456V21.999C45.9892 17.5867 42.3595 14.011 37.8805 14.011C34.0452 14.011 30.8447 16.6356 29.9954 20.1496C29.1193 16.662 25.9366 14.0815 22.1282 14.0815C17.6492 14.0815 14.0195 17.6572 14.0195 22.0695V22.3161C14.0195 26.0151 16.5764 29.124 20.0451 30.0311C16.5764 30.9382 14.0195 34.0471 14.0195 37.7461V37.9927C14.0195 42.405 17.6492 45.9807 22.1282 45.9807C25.9634 45.9807 29.164 43.3562 30.0133 39.8421C30.8894 43.3209 34.0721 45.9102 37.8805 45.9102C42.3595 45.9102 45.9892 42.3345 45.9892 37.9222V37.6756C45.9892 33.9766 43.4323 30.8678 39.9636 29.9606C43.4323 29.0535 45.9892 25.9446 45.9892 22.2456Z" fill="#00D5B0"/>
</svg>
