<svg preserveAspectRatio="none" width="100%" height="100%" overflow="visible" style="display: block;" viewBox="0 0 15.5556 3.33333" fill="none" xmlns="http://www.w3.org/2000/svg">
<g id="intuit-logo-super-blue.intuit-logo-super-blue 1" clip-path="url(#clip0_0_5571)">
<path id="Vector" d="M7.96826 1.90279C7.96826 2.68757 8.59652 3.26115 9.39444 3.26115C10.1924 3.26115 10.8211 2.68844 10.8211 1.90279V0.101427H10.0481V1.81033C10.0481 2.23361 9.7652 2.51756 9.39228 2.51756C9.01932 2.51756 8.73646 2.23361 8.73646 1.81033V0.101427H7.96429L7.96826 1.90279Z" fill="var(--fill-0, white)"/>
<path id="Vector_2" d="M12.8865 0.824426H13.8086V3.19849H14.5812V0.824426H15.5028V0.101427H12.8865V0.824426Z" fill="var(--fill-0, white)"/>
<path id="Vector_3" d="M12.3872 0.101427H11.6146V3.19849H12.3872V0.101427Z" fill="var(--fill-0, white)"/>
<path id="Vector_4" d="M4.84698 0.824426H5.76903V3.19849H6.54163V0.824426H7.46329V0.101427H4.84698V0.824426Z" fill="var(--fill-0, white)"/>
<path id="Vector_5" d="M0.793946 0.101427H0.0213836V3.19849H0.793946V1.64996V0.101427Z" fill="var(--fill-0, white)"/>
<path id="Vector_6" d="M4.44033 1.39712C4.44033 0.612345 3.81162 0.0387647 3.0137 0.0387647C2.21578 0.0387647 1.58706 0.611464 1.58706 1.39712V3.19848H2.35963V1.48958C2.35963 1.0663 2.64294 0.782356 3.01546 0.782356C3.38796 0.782356 3.67128 1.0663 3.67128 1.48958V3.19848H4.44386L4.44033 1.39712Z" fill="var(--fill-0, white)"/>
</g>
<defs>
<clipPath id="clip0_0_5571">
<rect width="15.5556" height="3.33333" fill="white"/>
</clipPath>
</defs>
</svg>
